# MagicaVoxel @ Ephtracy

# group
o 

# material
mtllib ContainerFluid.mtl
usemtl palette

# normals
vn -1 0 0
vn 1 0 0
vn 0 0 1
vn 0 0 -1
vn 0 -1 0
vn 0 1 0

# texcoords
vt 0.908203 0.5
vt 0.919922 0.5

# verts
v -5 -4 1
v -5 -4 -1
v -5 4 1
v -5 4 -1
v -4 -5 1
v -4 -5 -1
v -4 -4 1
v -4 -4 -1
v -4 -3 -3
v -4 -3 -5
v -4 3 -3
v -4 3 -5
v -4 4 1
v -4 4 -1
v -4 5 1
v -4 5 -1
v -3 -5 -1
v -3 -5 -5
v -3 -4 -1
v -3 -4 -3
v -3 -4 -5
v -3 -3 2
v -3 -3 1
v -3 -3 -1
v -3 -3 -3
v -3 -3 -5
v -3 -3 -6
v -3 3 2
v -3 3 1
v -3 3 -1
v -3 3 -3
v -3 3 -5
v -3 3 -6
v -3 4 -1
v -3 4 -3
v -3 4 -5
v -3 5 -1
v -3 5 -5
v 1 -5 -1
v 1 -5 -3
v 1 -4 1
v 1 -4 -1
v 1 -4 -3
v 1 -4 -5
v 1 -3 2
v 1 -3 1
v 1 -3 -1
v 1 -3 -3
v 1 -3 -5
v 1 -3 -6
v 1 3 2
v 1 3 1
v 1 3 -1
v 1 3 -3
v 1 3 -5
v 1 3 -6
v 1 4 1
v 1 4 -1
v 1 4 -3
v 1 4 -5
v 1 5 -1
v 1 5 -3
v -1 -5 -1
v -1 -5 -3
v -1 -4 1
v -1 -4 -1
v -1 -4 -3
v -1 -4 -5
v -1 -3 2
v -1 -3 1
v -1 -3 -1
v -1 -3 -3
v -1 -3 -5
v -1 -3 -6
v -1 3 2
v -1 3 1
v -1 3 -1
v -1 3 -3
v -1 3 -5
v -1 3 -6
v -1 4 1
v -1 4 -1
v -1 4 -3
v -1 4 -5
v -1 5 -1
v -1 5 -3
v 3 -5 -1
v 3 -5 -5
v 3 -4 -1
v 3 -4 -3
v 3 -4 -5
v 3 -3 2
v 3 -3 1
v 3 -3 -1
v 3 -3 -3
v 3 -3 -5
v 3 -3 -6
v 3 3 2
v 3 3 1
v 3 3 -1
v 3 3 -3
v 3 3 -5
v 3 3 -6
v 3 4 -1
v 3 4 -3
v 3 4 -5
v 3 5 -1
v 3 5 -5
v 4 -5 1
v 4 -5 -1
v 4 -4 1
v 4 -4 -1
v 4 -3 -3
v 4 -3 -5
v 4 3 -3
v 4 3 -5
v 4 4 1
v 4 4 -1
v 4 5 1
v 4 5 -1
v 5 -4 1
v 5 -4 -1
v 5 4 1
v 5 4 -1
v -3 -3 2
v -3 3 2
v -1 -3 2
v -1 3 2
v 1 -3 2
v 1 3 2
v 3 -3 2
v 3 3 2
v -5 -4 1
v -5 4 1
v -4 -5 1
v -4 -4 1
v -4 -3 1
v -4 3 1
v -4 4 1
v -4 5 1
v -3 -4 1
v -3 -3 1
v -3 3 1
v -3 4 1
v -1 -4 1
v -1 -3 1
v -1 3 1
v -1 4 1
v 1 -4 1
v 1 -3 1
v 1 3 1
v 1 4 1
v 3 -4 1
v 3 -3 1
v 3 3 1
v 3 4 1
v 4 -5 1
v 4 -4 1
v 4 -3 1
v 4 3 1
v 4 4 1
v 4 5 1
v 5 -4 1
v 5 4 1
v -4 -3 -3
v -4 3 -3
v -3 -4 -3
v -3 -3 -3
v -3 3 -3
v -3 4 -3
v -1 -5 -3
v -1 -4 -3
v -1 -3 -3
v -1 3 -3
v -1 4 -3
v -1 5 -3
v 1 -5 -3
v 1 -4 -3
v 1 -3 -3
v 1 3 -3
v 1 4 -3
v 1 5 -3
v 3 -4 -3
v 3 -3 -3
v 3 3 -3
v 3 4 -3
v 4 -3 -3
v 4 3 -3
v -5 -4 -1
v -5 4 -1
v -4 -5 -1
v -4 -4 -1
v -4 -3 -1
v -4 3 -1
v -4 4 -1
v -4 5 -1
v -3 -5 -1
v -3 -4 -1
v -3 -3 -1
v -3 3 -1
v -3 4 -1
v -3 5 -1
v -1 -5 -1
v -1 -4 -1
v -1 -3 -1
v -1 3 -1
v -1 4 -1
v -1 5 -1
v 1 -5 -1
v 1 -4 -1
v 1 -3 -1
v 1 3 -1
v 1 4 -1
v 1 5 -1
v 3 -5 -1
v 3 -4 -1
v 3 -3 -1
v 3 3 -1
v 3 4 -1
v 3 5 -1
v 4 -5 -1
v 4 -4 -1
v 4 -3 -1
v 4 3 -1
v 4 4 -1
v 4 5 -1
v 5 -4 -1
v 5 4 -1
v -4 -3 -5
v -4 3 -5
v -3 -5 -5
v -3 -4 -5
v -3 -3 -5
v -3 3 -5
v -3 4 -5
v -3 5 -5
v -1 -4 -5
v -1 -3 -5
v -1 3 -5
v -1 4 -5
v 1 -4 -5
v 1 -3 -5
v 1 3 -5
v 1 4 -5
v 3 -5 -5
v 3 -4 -5
v 3 -3 -5
v 3 3 -5
v 3 4 -5
v 3 5 -5
v 4 -3 -5
v 4 3 -5
v -3 -3 -6
v -3 3 -6
v -1 -3 -6
v -1 3 -6
v 1 -3 -6
v 1 3 -6
v 3 -3 -6
v 3 3 -6
v -4 -5 1
v 4 -5 1
v -4 -5 -1
v -3 -5 -1
v -1 -5 -1
v 1 -5 -1
v 3 -5 -1
v 4 -5 -1
v -1 -5 -3
v 1 -5 -3
v -3 -5 -5
v 3 -5 -5
v -5 -4 1
v -4 -4 1
v 4 -4 1
v 5 -4 1
v -5 -4 -1
v -4 -4 -1
v 4 -4 -1
v 5 -4 -1
v -3 -3 2
v -1 -3 2
v 1 -3 2
v 3 -3 2
v -3 -3 1
v -1 -3 1
v 1 -3 1
v 3 -3 1
v -3 -3 -1
v -1 -3 -1
v 1 -3 -1
v 3 -3 -1
v -4 -3 -3
v -3 -3 -3
v -1 -3 -3
v 1 -3 -3
v 3 -3 -3
v 4 -3 -3
v -4 -3 -5
v -3 -3 -5
v -1 -3 -5
v 1 -3 -5
v 3 -3 -5
v 4 -3 -5
v -3 -3 -6
v -1 -3 -6
v 1 -3 -6
v 3 -3 -6
v -1 4 1
v 1 4 1
v -3 4 -1
v -1 4 -1
v 1 4 -1
v 3 4 -1
v -3 4 -3
v -1 4 -3
v 1 4 -3
v 3 4 -3
v -1 4 -5
v 1 4 -5
v -1 -4 1
v 1 -4 1
v -3 -4 -1
v -1 -4 -1
v 1 -4 -1
v 3 -4 -1
v -3 -4 -3
v -1 -4 -3
v 1 -4 -3
v 3 -4 -3
v -1 -4 -5
v 1 -4 -5
v -3 3 2
v -1 3 2
v 1 3 2
v 3 3 2
v -3 3 1
v -1 3 1
v 1 3 1
v 3 3 1
v -3 3 -1
v -1 3 -1
v 1 3 -1
v 3 3 -1
v -4 3 -3
v -3 3 -3
v -1 3 -3
v 1 3 -3
v 3 3 -3
v 4 3 -3
v -4 3 -5
v -3 3 -5
v -1 3 -5
v 1 3 -5
v 3 3 -5
v 4 3 -5
v -3 3 -6
v -1 3 -6
v 1 3 -6
v 3 3 -6
v -5 4 1
v -4 4 1
v 4 4 1
v 5 4 1
v -5 4 -1
v -4 4 -1
v 4 4 -1
v 5 4 -1
v -4 5 1
v 4 5 1
v -4 5 -1
v -3 5 -1
v -1 5 -1
v 1 5 -1
v 3 5 -1
v 4 5 -1
v -1 5 -3
v 1 5 -3
v -3 5 -5
v 3 5 -5

# faces
f 3/1/1 2/1/1 1/1/1
f 4/1/1 2/1/1 3/1/1
f 7/1/1 6/1/1 5/1/1
f 8/1/1 6/1/1 7/1/1
f 11/2/1 10/2/1 9/2/1
f 12/2/1 10/2/1 11/2/1
f 15/1/1 14/1/1 13/1/1
f 16/1/1 14/1/1 15/1/1
f 19/1/1 18/1/1 17/1/1
f 20/1/1 18/1/1 19/1/1
f 21/1/1 18/1/1 20/1/1
f 25/2/1 21/2/1 20/2/1
f 26/2/1 21/2/1 25/2/1
f 28/2/1 23/2/1 22/2/1
f 29/2/1 23/2/1 28/2/1
f 30/2/1 25/2/1 24/2/1
f 31/2/1 25/2/1 30/2/1
f 32/2/1 27/2/1 26/2/1
f 33/2/1 27/2/1 32/2/1
f 35/2/1 32/2/1 31/2/1
f 36/2/1 32/2/1 35/2/1
f 37/1/1 35/1/1 34/1/1
f 37/1/1 36/1/1 35/1/1
f 38/1/1 36/1/1 37/1/1
f 42/1/1 40/1/1 39/1/1
f 43/1/1 40/1/1 42/1/1
f 46/2/1 42/2/1 41/2/1
f 47/2/1 42/2/1 46/2/1
f 48/2/1 44/2/1 43/2/1
f 49/2/1 44/2/1 48/2/1
f 51/2/1 46/2/1 45/2/1
f 52/2/1 46/2/1 51/2/1
f 53/2/1 48/2/1 47/2/1
f 54/2/1 48/2/1 53/2/1
f 55/2/1 50/2/1 49/2/1
f 56/2/1 50/2/1 55/2/1
f 57/2/1 53/2/1 52/2/1
f 58/2/1 53/2/1 57/2/1
f 59/2/1 55/2/1 54/2/1
f 60/2/1 55/2/1 59/2/1
f 61/1/1 59/1/1 58/1/1
f 62/1/1 59/1/1 61/1/1
f 63/1/2 64/1/2 66/1/2
f 66/1/2 64/1/2 67/1/2
f 65/2/2 66/2/2 70/2/2
f 70/2/2 66/2/2 71/2/2
f 67/2/2 68/2/2 72/2/2
f 72/2/2 68/2/2 73/2/2
f 69/2/2 70/2/2 75/2/2
f 75/2/2 70/2/2 76/2/2
f 71/2/2 72/2/2 77/2/2
f 77/2/2 72/2/2 78/2/2
f 73/2/2 74/2/2 79/2/2
f 79/2/2 74/2/2 80/2/2
f 76/2/2 77/2/2 81/2/2
f 81/2/2 77/2/2 82/2/2
f 78/2/2 79/2/2 83/2/2
f 83/2/2 79/2/2 84/2/2
f 82/1/2 83/1/2 85/1/2
f 85/1/2 83/1/2 86/1/2
f 87/1/2 88/1/2 89/1/2
f 89/1/2 88/1/2 90/1/2
f 90/1/2 88/1/2 91/1/2
f 90/2/2 91/2/2 95/2/2
f 95/2/2 91/2/2 96/2/2
f 92/2/2 93/2/2 98/2/2
f 98/2/2 93/2/2 99/2/2
f 94/2/2 95/2/2 100/2/2
f 100/2/2 95/2/2 101/2/2
f 96/2/2 97/2/2 102/2/2
f 102/2/2 97/2/2 103/2/2
f 101/2/2 102/2/2 105/2/2
f 105/2/2 102/2/2 106/2/2
f 104/1/2 105/1/2 107/1/2
f 105/1/2 106/1/2 107/1/2
f 107/1/2 106/1/2 108/1/2
f 109/1/2 110/1/2 111/1/2
f 111/1/2 110/1/2 112/1/2
f 113/2/2 114/2/2 115/2/2
f 115/2/2 114/2/2 116/2/2
f 117/1/2 118/1/2 119/1/2
f 119/1/2 118/1/2 120/1/2
f 121/1/2 122/1/2 123/1/2
f 123/1/2 122/1/2 124/1/2
f 127/2/3 126/2/3 125/2/3
f 128/2/3 126/2/3 127/2/3
f 131/2/3 130/2/3 129/2/3
f 132/2/3 130/2/3 131/2/3
f 136/1/3 134/1/3 133/1/3
f 137/1/3 134/1/3 136/1/3
f 138/1/3 134/1/3 137/1/3
f 139/1/3 134/1/3 138/1/3
f 141/1/3 136/1/3 135/1/3
f 141/1/3 137/1/3 136/1/3
f 142/2/3 138/2/3 137/2/3
f 142/1/3 137/1/3 141/1/3
f 143/1/3 140/1/3 139/1/3
f 143/2/3 138/2/3 142/2/3
f 143/1/3 139/1/3 138/1/3
f 144/1/3 140/1/3 143/1/3
f 145/2/3 142/2/3 141/2/3
f 145/1/3 141/1/3 135/1/3
f 146/2/3 142/2/3 145/2/3
f 147/2/3 144/2/3 143/2/3
f 148/1/3 140/1/3 144/1/3
f 148/2/3 144/2/3 147/2/3
f 149/1/3 145/1/3 135/1/3
f 150/2/3 147/2/3 146/2/3
f 151/2/3 147/2/3 150/2/3
f 152/1/3 140/1/3 148/1/3
f 153/1/3 149/1/3 135/1/3
f 153/2/3 150/2/3 149/2/3
f 154/2/3 150/2/3 153/2/3
f 155/2/3 152/2/3 151/2/3
f 156/1/3 140/1/3 152/1/3
f 156/2/3 152/2/3 155/2/3
f 157/1/3 154/1/3 153/1/3
f 157/1/3 153/1/3 135/1/3
f 158/1/3 154/1/3 157/1/3
f 159/2/3 155/2/3 154/2/3
f 159/1/3 154/1/3 158/1/3
f 160/1/3 156/1/3 155/1/3
f 160/2/3 155/2/3 159/2/3
f 161/1/3 140/1/3 156/1/3
f 161/1/3 156/1/3 160/1/3
f 162/1/3 140/1/3 161/1/3
f 163/1/3 160/1/3 159/1/3
f 163/1/3 161/1/3 160/1/3
f 163/1/3 159/1/3 158/1/3
f 164/1/3 161/1/3 163/1/3
f 168/2/3 166/2/3 165/2/3
f 169/2/3 166/2/3 168/2/3
f 172/2/3 168/2/3 167/2/3
f 173/2/3 168/2/3 172/2/3
f 174/2/3 170/2/3 169/2/3
f 175/2/3 170/2/3 174/2/3
f 177/1/3 172/1/3 171/1/3
f 178/1/3 172/1/3 177/1/3
f 179/2/3 174/2/3 173/2/3
f 180/2/3 174/2/3 179/2/3
f 181/1/3 176/1/3 175/1/3
f 182/1/3 176/1/3 181/1/3
f 183/2/3 179/2/3 178/2/3
f 184/2/3 179/2/3 183/2/3
f 185/2/3 181/2/3 180/2/3
f 186/2/3 181/2/3 185/2/3
f 187/2/3 185/2/3 184/2/3
f 188/2/3 185/2/3 187/2/3
f 189/1/4 190/1/4 192/1/4
f 192/1/4 190/1/4 193/1/4
f 193/1/4 190/1/4 194/1/4
f 194/1/4 190/1/4 195/1/4
f 191/1/4 192/1/4 197/1/4
f 192/1/4 193/1/4 197/1/4
f 197/1/4 193/1/4 198/1/4
f 193/2/4 194/2/4 199/2/4
f 198/1/4 193/1/4 199/1/4
f 195/1/4 196/1/4 200/1/4
f 199/2/4 194/2/4 200/2/4
f 194/1/4 195/1/4 200/1/4
f 200/1/4 196/1/4 201/1/4
f 201/1/4 196/1/4 202/1/4
f 198/2/4 199/2/4 204/2/4
f 204/2/4 199/2/4 205/2/4
f 200/2/4 201/2/4 206/2/4
f 206/2/4 201/2/4 207/2/4
f 203/1/4 204/1/4 209/1/4
f 209/1/4 204/1/4 210/1/4
f 205/2/4 206/2/4 211/2/4
f 211/2/4 206/2/4 212/2/4
f 207/1/4 208/1/4 213/1/4
f 213/1/4 208/1/4 214/1/4
f 210/2/4 211/2/4 216/2/4
f 216/2/4 211/2/4 217/2/4
f 212/2/4 213/2/4 218/2/4
f 218/2/4 213/2/4 219/2/4
f 216/1/4 217/1/4 221/1/4
f 215/1/4 216/1/4 221/1/4
f 221/1/4 217/1/4 222/1/4
f 217/2/4 218/2/4 223/2/4
f 222/1/4 217/1/4 223/1/4
f 219/1/4 220/1/4 224/1/4
f 223/2/4 218/2/4 224/2/4
f 218/1/4 219/1/4 224/1/4
f 224/1/4 220/1/4 225/1/4
f 225/1/4 220/1/4 226/1/4
f 222/1/4 223/1/4 227/1/4
f 224/1/4 225/1/4 227/1/4
f 223/1/4 224/1/4 227/1/4
f 227/1/4 225/1/4 228/1/4
f 229/2/4 230/2/4 233/2/4
f 233/2/4 230/2/4 234/2/4
f 231/1/4 232/1/4 237/1/4
f 232/2/4 233/2/4 237/2/4
f 237/2/4 233/2/4 238/2/4
f 234/2/4 235/2/4 239/2/4
f 235/1/4 236/1/4 240/1/4
f 239/2/4 235/2/4 240/2/4
f 231/1/4 237/1/4 241/1/4
f 238/2/4 239/2/4 242/2/4
f 242/2/4 239/2/4 243/2/4
f 240/1/4 236/1/4 244/1/4
f 231/1/4 241/1/4 245/1/4
f 241/2/4 242/2/4 246/2/4
f 245/1/4 241/1/4 246/1/4
f 246/2/4 242/2/4 247/2/4
f 243/2/4 244/2/4 248/2/4
f 244/1/4 236/1/4 249/1/4
f 248/2/4 244/2/4 249/2/4
f 249/1/4 236/1/4 250/1/4
f 247/2/4 248/2/4 251/2/4
f 251/2/4 248/2/4 252/2/4
f 253/2/4 254/2/4 255/2/4
f 255/2/4 254/2/4 256/2/4
f 257/2/4 258/2/4 259/2/4
f 259/2/4 258/2/4 260/2/4
f 263/1/5 262/1/5 261/1/5
f 264/1/5 262/1/5 263/1/5
f 265/1/5 262/1/5 264/1/5
f 266/1/5 262/1/5 265/1/5
f 267/1/5 262/1/5 266/1/5
f 268/1/5 262/1/5 267/1/5
f 269/1/5 265/1/5 264/1/5
f 270/1/5 267/1/5 266/1/5
f 271/1/5 269/1/5 264/1/5
f 271/1/5 270/1/5 269/1/5
f 272/1/5 267/1/5 270/1/5
f 272/1/5 270/1/5 271/1/5
f 277/1/5 274/1/5 273/1/5
f 278/1/5 274/1/5 277/1/5
f 279/1/5 276/1/5 275/1/5
f 280/1/5 276/1/5 279/1/5
f 285/2/5 282/2/5 281/2/5
f 286/2/5 282/2/5 285/2/5
f 287/2/5 284/2/5 283/2/5
f 288/2/5 284/2/5 287/2/5
f 290/2/5 287/2/5 286/2/5
f 291/2/5 287/2/5 290/2/5
f 294/2/5 290/2/5 289/2/5
f 295/2/5 290/2/5 294/2/5
f 296/2/5 292/2/5 291/2/5
f 297/2/5 292/2/5 296/2/5
f 299/2/5 294/2/5 293/2/5
f 300/2/5 294/2/5 299/2/5
f 301/2/5 296/2/5 295/2/5
f 302/2/5 296/2/5 301/2/5
f 303/2/5 298/2/5 297/2/5
f 304/2/5 298/2/5 303/2/5
f 305/2/5 301/2/5 300/2/5
f 306/2/5 301/2/5 305/2/5
f 307/2/5 303/2/5 302/2/5
f 308/2/5 303/2/5 307/2/5
f 312/1/5 310/1/5 309/1/5
f 313/1/5 310/1/5 312/1/5
f 315/1/5 312/1/5 311/1/5
f 316/1/5 312/1/5 315/1/5
f 317/1/5 314/1/5 313/1/5
f 318/1/5 314/1/5 317/1/5
f 319/1/5 317/1/5 316/1/5
f 320/1/5 317/1/5 319/1/5
f 321/1/6 322/1/6 324/1/6
f 324/1/6 322/1/6 325/1/6
f 323/1/6 324/1/6 327/1/6
f 327/1/6 324/1/6 328/1/6
f 325/1/6 326/1/6 329/1/6
f 329/1/6 326/1/6 330/1/6
f 328/1/6 329/1/6 331/1/6
f 331/1/6 329/1/6 332/1/6
f 333/2/6 334/2/6 337/2/6
f 337/2/6 334/2/6 338/2/6
f 335/2/6 336/2/6 339/2/6
f 339/2/6 336/2/6 340/2/6
f 338/2/6 339/2/6 342/2/6
f 342/2/6 339/2/6 343/2/6
f 341/2/6 342/2/6 346/2/6
f 346/2/6 342/2/6 347/2/6
f 343/2/6 344/2/6 348/2/6
f 348/2/6 344/2/6 349/2/6
f 345/2/6 346/2/6 351/2/6
f 351/2/6 346/2/6 352/2/6
f 347/2/6 348/2/6 353/2/6
f 353/2/6 348/2/6 354/2/6
f 349/2/6 350/2/6 355/2/6
f 355/2/6 350/2/6 356/2/6
f 352/2/6 353/2/6 357/2/6
f 357/2/6 353/2/6 358/2/6
f 354/2/6 355/2/6 359/2/6
f 359/2/6 355/2/6 360/2/6
f 361/1/6 362/1/6 365/1/6
f 365/1/6 362/1/6 366/1/6
f 363/1/6 364/1/6 367/1/6
f 367/1/6 364/1/6 368/1/6
f 369/1/6 370/1/6 371/1/6
f 371/1/6 370/1/6 372/1/6
f 372/1/6 370/1/6 373/1/6
f 373/1/6 370/1/6 374/1/6
f 374/1/6 370/1/6 375/1/6
f 375/1/6 370/1/6 376/1/6
f 372/1/6 373/1/6 377/1/6
f 374/1/6 375/1/6 378/1/6
f 372/1/6 377/1/6 379/1/6
f 377/1/6 378/1/6 379/1/6
f 378/1/6 375/1/6 380/1/6
f 379/1/6 378/1/6 380/1/6
