# MagicaVoxel @ Ephtracy

# group
o 

# material
mtllib RadarDish.mtl
usemtl palette

# normals
vn -1 0 0
vn 1 0 0
vn 0 0 1
vn 0 0 -1
vn 0 -1 0
vn 0 1 0

# texcoords
vt 0.908203 0.5
vt 0.951172 0.5

# verts
v -3 0 3
v -3 0 1
v -3 1 3
v -3 1 1
v -2 -1 3
v -2 -1 1
v -2 0 4
v -2 0 3
v -2 0 1
v -2 0 0
v -2 1 4
v -2 1 3
v -2 1 1
v -2 1 0
v -1 0 3
v -1 0 2
v -1 1 3
v -1 2 3
v -1 2 2
v -1 3 3
v -1 3 2
v 1 0 3
v 1 0 1
v 1 1 3
v 1 1 1
v -2 0 3
v -2 0 1
v -2 1 3
v -2 1 1
v 0 0 3
v 0 0 2
v 0 1 3
v 0 2 3
v 0 2 2
v 0 3 3
v 0 3 2
v 1 -1 3
v 1 -1 1
v 1 0 4
v 1 0 3
v 1 0 1
v 1 0 0
v 1 1 4
v 1 1 3
v 1 1 1
v 1 1 0
v 2 0 3
v 2 0 1
v 2 1 3
v 2 1 1
v -2 0 4
v -2 1 4
v 1 0 4
v 1 1 4
v -3 0 3
v -3 1 3
v -2 -1 3
v -2 0 3
v -2 1 3
v -1 1 3
v -1 2 3
v -1 3 3
v 0 1 3
v 0 2 3
v 0 3 3
v 1 -1 3
v 1 0 3
v 1 1 3
v 2 0 3
v 2 1 3
v -2 0 1
v -2 1 1
v 1 0 1
v 1 1 1
v -2 0 3
v -2 1 3
v -1 0 3
v -1 1 3
v 0 0 3
v 0 1 3
v 1 0 3
v 1 1 3
v -1 0 2
v -1 2 2
v -1 3 2
v 0 0 2
v 0 2 2
v 0 3 2
v -3 0 1
v -3 1 1
v -2 -1 1
v -2 0 1
v -2 1 1
v 1 -1 1
v 1 0 1
v 1 1 1
v 2 0 1
v 2 1 1
v -2 0 0
v -2 1 0
v 1 0 0
v 1 1 0
v -2 -1 3
v 1 -1 3
v -2 -1 1
v 1 -1 1
v -2 0 4
v 1 0 4
v -3 0 3
v -2 0 3
v 1 0 3
v 2 0 3
v -3 0 1
v -2 0 1
v 1 0 1
v 2 0 1
v -2 0 0
v 1 0 0
v -2 0 3
v -1 0 3
v 0 0 3
v 1 0 3
v -1 0 2
v 0 0 2
v -2 0 1
v 1 0 1
v -2 1 4
v 1 1 4
v -3 1 3
v -2 1 3
v -1 1 3
v 0 1 3
v 1 1 3
v 2 1 3
v -3 1 1
v -2 1 1
v 1 1 1
v 2 1 1
v -2 1 0
v 1 1 0
v -1 3 3
v 0 3 3
v -1 3 2
v 0 3 2

# faces
f 3/2/1 2/2/1 1/2/1
f 4/2/1 2/2/1 3/2/1
f 8/2/1 6/2/1 5/2/1
f 9/2/1 6/2/1 8/2/1
f 11/2/1 8/2/1 7/2/1
f 12/2/1 8/2/1 11/2/1
f 13/2/1 10/2/1 9/2/1
f 14/2/1 10/2/1 13/2/1
f 17/2/1 16/2/1 15/2/1
f 18/2/1 16/2/1 17/2/1
f 19/2/1 16/2/1 18/2/1
f 20/1/1 19/1/1 18/1/1
f 21/1/1 19/1/1 20/1/1
f 24/2/1 23/2/1 22/2/1
f 25/2/1 23/2/1 24/2/1
f 26/2/2 27/2/2 28/2/2
f 28/2/2 27/2/2 29/2/2
f 30/2/2 31/2/2 32/2/2
f 32/2/2 31/2/2 33/2/2
f 33/2/2 31/2/2 34/2/2
f 33/1/2 34/1/2 35/1/2
f 35/1/2 34/1/2 36/1/2
f 37/2/2 38/2/2 40/2/2
f 40/2/2 38/2/2 41/2/2
f 39/2/2 40/2/2 43/2/2
f 43/2/2 40/2/2 44/2/2
f 41/2/2 42/2/2 45/2/2
f 45/2/2 42/2/2 46/2/2
f 47/2/2 48/2/2 49/2/2
f 49/2/2 48/2/2 50/2/2
f 53/2/3 52/2/3 51/2/3
f 54/2/3 52/2/3 53/2/3
f 58/2/3 56/2/3 55/2/3
f 59/2/3 56/2/3 58/2/3
f 63/2/3 61/2/3 60/2/3
f 64/1/3 62/1/3 61/1/3
f 64/2/3 61/2/3 63/2/3
f 65/1/3 62/1/3 64/1/3
f 66/2/3 58/2/3 57/2/3
f 67/2/3 58/2/3 66/2/3
f 69/2/3 68/2/3 67/2/3
f 70/2/3 68/2/3 69/2/3
f 73/2/3 72/2/3 71/2/3
f 74/2/3 72/2/3 73/2/3
f 75/2/4 76/2/4 77/2/4
f 77/2/4 76/2/4 78/2/4
f 79/2/4 80/2/4 81/2/4
f 81/2/4 80/2/4 82/2/4
f 83/2/4 84/2/4 86/2/4
f 84/1/4 85/1/4 87/1/4
f 86/2/4 84/2/4 87/2/4
f 87/1/4 85/1/4 88/1/4
f 89/2/4 90/2/4 92/2/4
f 92/2/4 90/2/4 93/2/4
f 91/2/4 92/2/4 94/2/4
f 94/2/4 92/2/4 95/2/4
f 95/2/4 96/2/4 97/2/4
f 97/2/4 96/2/4 98/2/4
f 99/2/4 100/2/4 101/2/4
f 101/2/4 100/2/4 102/2/4
f 105/2/5 104/2/5 103/2/5
f 106/2/5 104/2/5 105/2/5
f 110/2/5 108/2/5 107/2/5
f 111/2/5 108/2/5 110/2/5
f 113/2/5 110/2/5 109/2/5
f 114/2/5 110/2/5 113/2/5
f 115/2/5 112/2/5 111/2/5
f 116/2/5 112/2/5 115/2/5
f 117/2/5 115/2/5 114/2/5
f 118/2/5 115/2/5 117/2/5
f 119/2/6 120/2/6 123/2/6
f 121/2/6 122/2/6 124/2/6
f 119/2/6 123/2/6 125/2/6
f 123/2/6 124/2/6 125/2/6
f 124/2/6 122/2/6 126/2/6
f 125/2/6 124/2/6 126/2/6
f 127/2/6 128/2/6 130/2/6
f 130/2/6 128/2/6 131/2/6
f 131/2/6 128/2/6 132/2/6
f 132/2/6 128/2/6 133/2/6
f 129/2/6 130/2/6 135/2/6
f 135/2/6 130/2/6 136/2/6
f 133/2/6 134/2/6 137/2/6
f 137/2/6 134/2/6 138/2/6
f 136/2/6 137/2/6 139/2/6
f 139/2/6 137/2/6 140/2/6
f 141/1/6 142/1/6 143/1/6
f 143/1/6 142/1/6 144/1/6
