# MagicaVoxel @ Ephtracy

# group
o 

# material
mtllib SolarModule.mtl
usemtl palette

# normals
vn -1 0 0
vn 1 0 0
vn 0 0 1
vn 0 0 -1
vn 0 -1 0
vn 0 1 0

# texcoords
vt 0.908203 0.5
vt 0.919922 0.5
vt 0.962891 0.5

# verts
v -5 -5 2
v -5 -5 -1
v -5 -4 1
v -5 -4 0
v -5 4 1
v -5 4 0
v -5 5 2
v -5 5 -1
v -4 -4 3
v -4 -4 2
v -4 -4 -1
v -4 -4 -2
v -4 4 3
v -4 4 2
v -4 4 -1
v -4 4 -2
v -3 4 3
v -3 4 2
v -3 4 -1
v -3 4 -2
v -3 5 3
v -3 5 2
v -3 5 -1
v -3 5 -2
v 3 4 3
v 3 4 2
v 3 4 -1
v 3 4 -2
v 3 5 3
v 3 5 2
v 3 5 -1
v 3 5 -2
v 4 -4 3
v 4 -4 2
v 4 -4 -1
v 4 -4 -2
v 4 4 3
v 4 4 2
v 4 4 -1
v 4 4 -2
v 5 -5 2
v 5 -5 -1
v 5 -4 1
v 5 -4 0
v 5 4 1
v 5 4 0
v 5 5 2
v 5 5 -1
v -4 -4 3
v -4 4 3
v -3 -3 3
v -3 3 3
v -3 4 3
v -3 5 3
v -2 1 3
v -2 3 3
v -1 -1 3
v -1 1 3
v -1 2 3
v -1 4 3
v 1 -1 3
v 1 1 3
v 1 2 3
v 1 4 3
v 2 1 3
v 2 3 3
v 3 -3 3
v 3 3 3
v 3 4 3
v 3 5 3
v 4 -4 3
v 4 4 3
v -5 -5 2
v -5 5 2
v -4 -4 2
v -4 4 2
v -3 4 2
v -3 5 2
v 3 4 2
v 3 5 2
v 4 -4 2
v 4 4 2
v 5 -5 2
v 5 5 2
v -5 -5 -1
v -5 5 -1
v -4 -4 -1
v -4 4 -1
v -3 4 -1
v -3 5 -1
v 3 4 -1
v 3 5 -1
v 4 -4 -1
v 4 4 -1
v 5 -5 -1
v 5 5 -1
v -4 -4 -2
v -4 4 -2
v -3 -3 -2
v -3 3 -2
v -3 4 -2
v -3 5 -2
v -2 1 -2
v -2 3 -2
v -1 -1 -2
v -1 1 -2
v -1 2 -2
v -1 4 -2
v 1 -1 -2
v 1 1 -2
v 1 2 -2
v 1 4 -2
v 2 1 -2
v 2 3 -2
v 3 -3 -2
v 3 3 -2
v 3 4 -2
v 3 5 -2
v 4 -4 -2
v 4 4 -2
v -5 -5 2
v 5 -5 2
v -4 -5 1
v 4 -5 1
v -4 -5 0
v 4 -5 0
v -5 -5 -1
v 5 -5 -1
v -4 -4 3
v 4 -4 3
v -4 -4 2
v 4 -4 2
v -4 -4 -1
v 4 -4 -1
v -4 -4 -2
v 4 -4 -2
v -4 4 3
v -3 4 3
v 3 4 3
v 4 4 3
v -4 4 2
v -3 4 2
v 3 4 2
v 4 4 2
v -4 4 -1
v -3 4 -1
v 3 4 -1
v 4 4 -1
v -4 4 -2
v -3 4 -2
v 3 4 -2
v 4 4 -2
v -3 5 3
v 3 5 3
v -5 5 2
v -3 5 2
v -2 5 2
v 2 5 2
v 3 5 2
v 5 5 2
v -4 5 1
v -2 5 1
v -1 5 1
v 1 5 1
v 2 5 1
v 4 5 1
v -4 5 0
v -2 5 0
v -1 5 0
v 1 5 0
v 2 5 0
v 4 5 0
v -5 5 -1
v -3 5 -1
v -2 5 -1
v 2 5 -1
v 3 5 -1
v 5 5 -1
v -3 5 -2
v 3 5 -2

# faces
f 3/1/1 2/1/1 1/1/1
f 4/1/1 2/1/1 3/1/1
f 5/1/1 3/1/1 1/1/1
f 5/2/1 4/2/1 3/2/1
f 6/1/1 2/1/1 4/1/1
f 6/2/1 4/2/1 5/2/1
f 7/1/1 5/1/1 1/1/1
f 7/1/1 6/1/1 5/1/1
f 8/1/1 2/1/1 6/1/1
f 8/1/1 6/1/1 7/1/1
f 13/1/1 10/1/1 9/1/1
f 14/1/1 10/1/1 13/1/1
f 15/1/1 12/1/1 11/1/1
f 16/1/1 12/1/1 15/1/1
f 21/1/1 18/1/1 17/1/1
f 22/1/1 18/1/1 21/1/1
f 23/1/1 20/1/1 19/1/1
f 24/1/1 20/1/1 23/1/1
f 25/1/2 26/1/2 29/1/2
f 29/1/2 26/1/2 30/1/2
f 27/1/2 28/1/2 31/1/2
f 31/1/2 28/1/2 32/1/2
f 33/1/2 34/1/2 37/1/2
f 37/1/2 34/1/2 38/1/2
f 35/1/2 36/1/2 39/1/2
f 39/1/2 36/1/2 40/1/2
f 41/1/2 42/1/2 43/1/2
f 43/1/2 42/1/2 44/1/2
f 41/1/2 43/1/2 45/1/2
f 43/2/2 44/2/2 45/2/2
f 44/1/2 42/1/2 46/1/2
f 45/2/2 44/2/2 46/2/2
f 41/1/2 45/1/2 47/1/2
f 45/1/2 46/1/2 47/1/2
f 46/1/2 42/1/2 48/1/2
f 47/1/2 46/1/2 48/1/2
f 51/1/3 50/1/3 49/1/3
f 52/1/3 50/1/3 51/1/3
f 53/1/3 50/1/3 52/1/3
f 55/2/3 52/2/3 51/2/3
f 56/1/3 54/1/3 53/1/3
f 56/2/3 52/2/3 55/2/3
f 56/1/3 53/1/3 52/1/3
f 57/2/3 55/2/3 51/2/3
f 58/1/3 56/1/3 55/1/3
f 58/2/3 55/2/3 57/2/3
f 59/1/3 56/1/3 58/1/3
f 60/1/3 54/1/3 56/1/3
f 60/1/3 56/1/3 59/1/3
f 61/1/3 59/1/3 58/1/3
f 61/2/3 57/2/3 51/2/3
f 61/1/3 58/1/3 57/1/3
f 62/1/3 59/1/3 61/1/3
f 63/2/3 60/2/3 59/2/3
f 63/1/3 59/1/3 62/1/3
f 64/1/3 54/1/3 60/1/3
f 64/2/3 60/2/3 63/2/3
f 65/1/3 63/1/3 62/1/3
f 65/2/3 62/2/3 61/2/3
f 65/1/3 64/1/3 63/1/3
f 66/1/3 64/1/3 65/1/3
f 67/1/3 51/1/3 49/1/3
f 67/2/3 61/2/3 51/2/3
f 67/2/3 66/2/3 65/2/3
f 67/2/3 65/2/3 61/2/3
f 68/1/3 64/1/3 66/1/3
f 68/2/3 66/2/3 67/2/3
f 69/1/3 54/1/3 64/1/3
f 69/1/3 64/1/3 68/1/3
f 70/1/3 54/1/3 69/1/3
f 71/1/3 67/1/3 49/1/3
f 71/1/3 68/1/3 67/1/3
f 71/1/3 69/1/3 68/1/3
f 72/1/3 69/1/3 71/1/3
f 75/1/3 74/1/3 73/1/3
f 76/1/3 74/1/3 75/1/3
f 77/1/3 74/1/3 76/1/3
f 78/1/3 74/1/3 77/1/3
f 81/1/3 75/1/3 73/1/3
f 82/1/3 80/1/3 79/1/3
f 83/1/3 81/1/3 73/1/3
f 83/1/3 82/1/3 81/1/3
f 84/1/3 80/1/3 82/1/3
f 84/1/3 82/1/3 83/1/3
f 85/1/4 86/1/4 87/1/4
f 87/1/4 86/1/4 88/1/4
f 88/1/4 86/1/4 89/1/4
f 89/1/4 86/1/4 90/1/4
f 85/1/4 87/1/4 93/1/4
f 91/1/4 92/1/4 94/1/4
f 85/1/4 93/1/4 95/1/4
f 93/1/4 94/1/4 95/1/4
f 94/1/4 92/1/4 96/1/4
f 95/1/4 94/1/4 96/1/4
f 97/1/4 98/1/4 99/1/4
f 99/1/4 98/1/4 100/1/4
f 100/1/4 98/1/4 101/1/4
f 99/2/4 100/2/4 103/2/4
f 101/1/4 102/1/4 104/1/4
f 103/2/4 100/2/4 104/2/4
f 100/1/4 101/1/4 104/1/4
f 99/2/4 103/2/4 105/2/4
f 103/1/4 104/1/4 106/1/4
f 105/2/4 103/2/4 106/2/4
f 106/1/4 104/1/4 107/1/4
f 104/1/4 102/1/4 108/1/4
f 107/1/4 104/1/4 108/1/4
f 106/1/4 107/1/4 109/1/4
f 99/2/4 105/2/4 109/2/4
f 105/1/4 106/1/4 109/1/4
f 109/1/4 107/1/4 110/1/4
f 107/2/4 108/2/4 111/2/4
f 110/1/4 107/1/4 111/1/4
f 108/1/4 102/1/4 112/1/4
f 111/2/4 108/2/4 112/2/4
f 110/1/4 111/1/4 113/1/4
f 109/2/4 110/2/4 113/2/4
f 111/1/4 112/1/4 113/1/4
f 113/1/4 112/1/4 114/1/4
f 97/1/4 99/1/4 115/1/4
f 99/2/4 109/2/4 115/2/4
f 113/2/4 114/2/4 115/2/4
f 109/2/4 113/2/4 115/2/4
f 114/1/4 112/1/4 116/1/4
f 115/2/4 114/2/4 116/2/4
f 112/1/4 102/1/4 117/1/4
f 116/1/4 112/1/4 117/1/4
f 117/1/4 102/1/4 118/1/4
f 97/1/4 115/1/4 119/1/4
f 115/1/4 116/1/4 119/1/4
f 116/1/4 117/1/4 119/1/4
f 119/1/4 117/1/4 120/1/4
f 123/1/5 122/1/5 121/1/5
f 124/1/5 122/1/5 123/1/5
f 125/1/5 123/1/5 121/1/5
f 125/2/5 124/2/5 123/2/5
f 126/1/5 122/1/5 124/1/5
f 126/2/5 124/2/5 125/2/5
f 127/1/5 125/1/5 121/1/5
f 127/1/5 126/1/5 125/1/5
f 128/1/5 122/1/5 126/1/5
f 128/1/5 126/1/5 127/1/5
f 131/1/5 130/1/5 129/1/5
f 132/1/5 130/1/5 131/1/5
f 135/1/5 134/1/5 133/1/5
f 136/1/5 134/1/5 135/1/5
f 137/1/6 138/1/6 141/1/6
f 141/1/6 138/1/6 142/1/6
f 139/1/6 140/1/6 143/1/6
f 143/1/6 140/1/6 144/1/6
f 145/1/6 146/1/6 149/1/6
f 149/1/6 146/1/6 150/1/6
f 147/1/6 148/1/6 151/1/6
f 151/1/6 148/1/6 152/1/6
f 153/1/6 154/1/6 156/1/6
f 156/1/6 154/1/6 157/1/6
f 157/1/6 154/1/6 158/1/6
f 158/1/6 154/1/6 159/1/6
f 155/1/6 156/1/6 161/1/6
f 156/1/6 157/1/6 161/1/6
f 157/2/6 158/2/6 162/2/6
f 161/1/6 157/1/6 162/1/6
f 162/2/6 158/2/6 163/2/6
f 163/2/6 158/2/6 164/2/6
f 159/1/6 160/1/6 165/1/6
f 164/2/6 158/2/6 165/2/6
f 158/1/6 159/1/6 165/1/6
f 165/1/6 160/1/6 166/1/6
f 162/2/6 163/2/6 167/2/6
f 155/1/6 161/1/6 167/1/6
f 161/2/6 162/2/6 167/2/6
f 167/2/6 163/2/6 168/2/6
f 163/3/6 164/3/6 169/3/6
f 168/2/6 163/2/6 169/2/6
f 165/2/6 166/2/6 170/2/6
f 169/3/6 164/3/6 170/3/6
f 164/2/6 165/2/6 170/2/6
f 170/2/6 166/2/6 171/2/6
f 166/1/6 160/1/6 172/1/6
f 171/2/6 166/2/6 172/2/6
f 167/1/6 168/1/6 173/1/6
f 155/1/6 167/1/6 173/1/6
f 173/1/6 168/1/6 174/1/6
f 170/2/6 171/2/6 175/2/6
f 174/1/6 168/1/6 175/1/6
f 168/2/6 169/2/6 175/2/6
f 169/2/6 170/2/6 175/2/6
f 171/1/6 172/1/6 176/1/6
f 175/2/6 171/2/6 176/2/6
f 176/1/6 172/1/6 177/1/6
f 172/1/6 160/1/6 178/1/6
f 177/1/6 172/1/6 178/1/6
f 176/1/6 177/1/6 179/1/6
f 175/1/6 176/1/6 179/1/6
f 174/1/6 175/1/6 179/1/6
f 179/1/6 177/1/6 180/1/6
