# MagicaVoxel @ Ephtracy

# group
o 

# material
mtllib ThrusterModule.mtl
usemtl palette

# normals
vn -1 0 0
vn 1 0 0
vn 0 0 1
vn 0 0 -1
vn 0 -1 0
vn 0 1 0

# texcoords
vt 0.841797 0.5
vt 0.908203 0.5
vt 0.919922 0.5

# verts
v -5 -5 2
v -5 -5 -2
v -5 -4 1
v -5 -4 -1
v -5 2 0
v -5 2 -1
v -5 3 -1
v -5 3 -2
v -5 4 1
v -5 4 0
v -5 5 2
v -5 5 -1
v -4 -5 3
v -4 -5 2
v -4 -5 -2
v -4 -5 -3
v -4 -1 -2
v -4 -1 -3
v -4 3 -1
v -4 3 -2
v -4 4 3
v -4 4 2
v -4 4 -1
v -4 4 -2
v -3 -1 -2
v -3 -1 -3
v -3 1 -2
v -3 1 -3
v -2 1 -2
v -2 1 -3
v -2 2 -2
v -2 2 -3
v 3 -5 2
v 3 -5 1
v 3 -5 -1
v 3 -5 -2
v 3 -4 2
v 3 -4 1
v 3 -4 -1
v 3 -4 -2
v 4 -5 1
v 4 -5 -1
v 4 -4 1
v 4 -4 -1
v -4 -5 1
v -4 -5 -1
v -4 -4 1
v -4 -4 -1
v -3 -5 2
v -3 -5 1
v -3 -5 -1
v -3 -5 -2
v -3 -4 2
v -3 -4 1
v -3 -4 -1
v -3 -4 -2
v 2 1 -2
v 2 1 -3
v 2 2 -2
v 2 2 -3
v 3 -1 -2
v 3 -1 -3
v 3 1 -2
v 3 1 -3
v 4 -5 3
v 4 -5 2
v 4 -5 -2
v 4 -5 -3
v 4 -1 -2
v 4 -1 -3
v 4 3 -1
v 4 3 -2
v 4 4 3
v 4 4 2
v 4 4 -1
v 4 4 -2
v 5 -5 2
v 5 -5 -2
v 5 -4 1
v 5 -4 -1
v 5 2 0
v 5 2 -1
v 5 3 -1
v 5 3 -2
v 5 4 1
v 5 4 0
v 5 5 2
v 5 5 -1
v -4 -5 3
v -4 4 3
v -3 -1 3
v -3 3 3
v -2 -4 3
v -2 -2 3
v -2 -1 3
v -2 1 3
v -1 -2 3
v -1 0 3
v -1 1 3
v -1 2 3
v 1 -2 3
v 1 0 3
v 1 1 3
v 1 2 3
v 2 -4 3
v 2 -2 3
v 2 -1 3
v 2 1 3
v 3 -1 3
v 3 3 3
v 4 -5 3
v 4 4 3
v -5 -5 2
v -5 5 2
v -4 -5 2
v -4 4 2
v 4 -5 2
v 4 4 2
v 5 -5 2
v 5 5 2
v -4 -5 -1
v -4 -4 -1
v -3 -5 -1
v -3 -4 -1
v 3 -5 -1
v 3 -4 -1
v 4 -5 -1
v 4 -4 -1
v -3 -5 -2
v -3 -4 -2
v 3 -5 -2
v 3 -4 -2
v -3 -5 2
v -3 -4 2
v 3 -5 2
v 3 -4 2
v -4 -5 1
v -4 -4 1
v -3 -5 1
v -3 -4 1
v 3 -5 1
v 3 -4 1
v 4 -5 1
v 4 -4 1
v -5 3 -1
v -5 5 -1
v -4 3 -1
v -4 4 -1
v 4 3 -1
v 4 4 -1
v 5 3 -1
v 5 5 -1
v -5 -5 -2
v -5 3 -2
v -4 -5 -2
v -4 -1 -2
v -4 2 -2
v -4 3 -2
v -4 4 -2
v -3 -1 -2
v -3 1 -2
v -3 2 -2
v -3 3 -2
v -2 1 -2
v -2 2 -2
v 2 1 -2
v 2 2 -2
v 3 -1 -2
v 3 1 -2
v 3 2 -2
v 3 3 -2
v 4 -5 -2
v 4 -1 -2
v 4 2 -2
v 4 3 -2
v 4 4 -2
v 5 -5 -2
v 5 3 -2
v -4 -5 -3
v -4 -1 -3
v -3 -4 -3
v -3 -2 -3
v -3 -1 -3
v -3 1 -3
v -2 -2 -3
v -2 0 -3
v -2 1 -3
v -2 2 -3
v -1 0 -3
v -1 1 -3
v 1 0 -3
v 1 1 -3
v 2 -2 -3
v 2 0 -3
v 2 1 -3
v 2 2 -3
v 3 -4 -3
v 3 -2 -3
v 3 -1 -3
v 3 1 -3
v 4 -5 -3
v 4 -1 -3
v -4 -5 3
v 4 -5 3
v -5 -5 2
v -4 -5 2
v -3 -5 2
v 3 -5 2
v 4 -5 2
v 5 -5 2
v -4 -5 1
v -3 -5 1
v 3 -5 1
v 4 -5 1
v -4 -5 -1
v -3 -5 -1
v 3 -5 -1
v 4 -5 -1
v -5 -5 -2
v -4 -5 -2
v -3 -5 -2
v 3 -5 -2
v 4 -5 -2
v 5 -5 -2
v -4 -5 -3
v 4 -5 -3
v -3 -4 2
v 3 -4 2
v -4 -4 1
v -3 -4 1
v 3 -4 1
v 4 -4 1
v -4 -4 -1
v -3 -4 -1
v 3 -4 -1
v 4 -4 -1
v -3 -4 -2
v 3 -4 -2
v -4 -1 -2
v -3 -1 -2
v 3 -1 -2
v 4 -1 -2
v -4 -1 -3
v -3 -1 -3
v 3 -1 -3
v 4 -1 -3
v -3 1 -2
v -2 1 -2
v 2 1 -2
v 3 1 -2
v -3 1 -3
v -2 1 -3
v 2 1 -3
v 3 1 -3
v -2 2 -2
v 2 2 -2
v -2 2 -3
v 2 2 -3
v -5 3 -1
v -4 3 -1
v 4 3 -1
v 5 3 -1
v -5 3 -2
v -4 3 -2
v 4 3 -2
v 5 3 -2
v -4 4 3
v 4 4 3
v -4 4 2
v 4 4 2
v -4 4 -1
v 4 4 -1
v -4 4 -2
v 4 4 -2
v -5 5 2
v 5 5 2
v -4 5 1
v 4 5 1
v -4 5 0
v 4 5 0
v -5 5 -1
v 5 5 -1

# faces
f 3/2/1 2/2/1 1/2/1
f 4/2/1 2/2/1 3/2/1
f 5/3/1 4/3/1 3/3/1
f 6/2/1 2/2/1 4/2/1
f 6/3/1 4/3/1 5/3/1
f 7/2/1 6/2/1 5/2/1
f 7/2/1 2/2/1 6/2/1
f 8/2/1 2/2/1 7/2/1
f 9/2/1 3/2/1 1/2/1
f 9/3/1 5/3/1 3/3/1
f 10/2/1 7/2/1 5/2/1
f 10/3/1 5/3/1 9/3/1
f 11/2/1 9/2/1 1/2/1
f 11/2/1 10/2/1 9/2/1
f 12/2/1 7/2/1 10/2/1
f 12/2/1 10/2/1 11/2/1
f 17/2/1 16/2/1 15/2/1
f 18/2/1 16/2/1 17/2/1
f 21/2/1 14/2/1 13/2/1
f 22/2/1 14/2/1 21/2/1
f 23/2/1 20/2/1 19/2/1
f 24/2/1 20/2/1 23/2/1
f 27/2/1 26/2/1 25/2/1
f 28/2/1 26/2/1 27/2/1
f 31/2/1 30/2/1 29/2/1
f 32/2/1 30/2/1 31/2/1
f 37/2/1 34/2/1 33/2/1
f 38/2/1 34/2/1 37/2/1
f 39/2/1 36/2/1 35/2/1
f 40/2/1 36/2/1 39/2/1
f 43/2/1 42/2/1 41/2/1
f 44/2/1 42/2/1 43/2/1
f 45/2/2 46/2/2 47/2/2
f 47/2/2 46/2/2 48/2/2
f 49/2/2 50/2/2 53/2/2
f 53/2/2 50/2/2 54/2/2
f 51/2/2 52/2/2 55/2/2
f 55/2/2 52/2/2 56/2/2
f 57/2/2 58/2/2 59/2/2
f 59/2/2 58/2/2 60/2/2
f 61/2/2 62/2/2 63/2/2
f 63/2/2 62/2/2 64/2/2
f 67/2/2 68/2/2 69/2/2
f 69/2/2 68/2/2 70/2/2
f 65/2/2 66/2/2 73/2/2
f 73/2/2 66/2/2 74/2/2
f 71/2/2 72/2/2 75/2/2
f 75/2/2 72/2/2 76/2/2
f 77/2/2 78/2/2 79/2/2
f 79/2/2 78/2/2 80/2/2
f 79/3/2 80/3/2 81/3/2
f 80/2/2 78/2/2 82/2/2
f 81/3/2 80/3/2 82/3/2
f 81/2/2 82/2/2 83/2/2
f 82/2/2 78/2/2 83/2/2
f 83/2/2 78/2/2 84/2/2
f 77/2/2 79/2/2 85/2/2
f 79/3/2 81/3/2 85/3/2
f 81/2/2 83/2/2 86/2/2
f 85/3/2 81/3/2 86/3/2
f 77/2/2 85/2/2 87/2/2
f 85/2/2 86/2/2 87/2/2
f 86/2/2 83/2/2 88/2/2
f 87/2/2 86/2/2 88/2/2
f 91/2/3 90/2/3 89/2/3
f 92/2/3 90/2/3 91/2/3
f 93/2/3 91/2/3 89/2/3
f 94/2/3 91/2/3 93/2/3
f 95/3/3 92/3/3 91/3/3
f 95/2/3 91/2/3 94/2/3
f 96/3/3 92/3/3 95/3/3
f 97/3/3 94/3/3 93/3/3
f 97/2/3 95/2/3 94/2/3
f 97/2/3 96/2/3 95/2/3
f 98/2/3 96/2/3 97/2/3
f 99/3/3 92/3/3 96/3/3
f 99/2/3 96/2/3 98/2/3
f 100/3/3 92/3/3 99/3/3
f 101/3/3 98/3/3 97/3/3
f 101/3/3 97/3/3 93/3/3
f 102/2/3 100/2/3 99/2/3
f 102/3/3 98/3/3 101/3/3
f 102/2/3 99/2/3 98/2/3
f 103/2/3 100/2/3 102/2/3
f 104/3/3 92/3/3 100/3/3
f 104/2/3 100/2/3 103/2/3
f 105/2/3 93/2/3 89/2/3
f 105/3/3 101/3/3 93/3/3
f 106/2/3 103/2/3 102/2/3
f 106/3/3 101/3/3 105/3/3
f 106/2/3 102/2/3 101/2/3
f 107/2/3 103/2/3 106/2/3
f 108/3/3 104/3/3 103/3/3
f 108/2/3 103/2/3 107/2/3
f 109/2/3 107/2/3 106/2/3
f 109/2/3 106/2/3 105/2/3
f 109/3/3 108/3/3 107/3/3
f 110/2/3 90/2/3 92/2/3
f 110/3/3 108/3/3 109/3/3
f 110/3/3 92/3/3 104/3/3
f 110/3/3 104/3/3 108/3/3
f 111/2/3 109/2/3 105/2/3
f 111/2/3 105/2/3 89/2/3
f 111/2/3 110/2/3 109/2/3
f 112/2/3 90/2/3 110/2/3
f 112/2/3 110/2/3 111/2/3
f 115/2/3 114/2/3 113/2/3
f 116/2/3 114/2/3 115/2/3
f 118/2/3 114/2/3 116/2/3
f 119/2/3 118/2/3 117/2/3
f 120/2/3 114/2/3 118/2/3
f 120/2/3 118/2/3 119/2/3
f 123/2/3 122/2/3 121/2/3
f 124/2/3 122/2/3 123/2/3
f 127/2/3 126/2/3 125/2/3
f 128/2/3 126/2/3 127/2/3
f 131/2/3 130/2/3 129/2/3
f 132/2/3 130/2/3 131/2/3
f 133/2/4 134/2/4 135/2/4
f 135/2/4 134/2/4 136/2/4
f 137/2/4 138/2/4 139/2/4
f 139/2/4 138/2/4 140/2/4
f 141/2/4 142/2/4 143/2/4
f 143/2/4 142/2/4 144/2/4
f 145/2/4 146/2/4 147/2/4
f 147/2/4 146/2/4 148/2/4
f 148/2/4 146/2/4 150/2/4
f 149/2/4 150/2/4 151/2/4
f 150/2/4 146/2/4 152/2/4
f 151/2/4 150/2/4 152/2/4
f 153/2/4 154/2/4 155/2/4
f 155/2/4 154/2/4 156/2/4
f 156/2/4 154/2/4 157/2/4
f 157/2/4 154/2/4 158/2/4
f 156/3/4 157/3/4 160/3/4
f 160/3/4 157/3/4 161/3/4
f 158/2/4 159/2/4 162/2/4
f 161/3/4 157/3/4 162/3/4
f 157/2/4 158/2/4 162/2/4
f 162/2/4 159/2/4 163/2/4
f 161/3/4 162/3/4 164/3/4
f 162/3/4 163/3/4 164/3/4
f 164/3/4 163/3/4 165/3/4
f 165/3/4 163/3/4 167/3/4
f 166/3/4 167/3/4 169/3/4
f 167/3/4 163/3/4 170/3/4
f 169/3/4 167/3/4 170/3/4
f 163/2/4 159/2/4 171/2/4
f 170/3/4 163/3/4 171/3/4
f 169/3/4 170/3/4 173/3/4
f 168/3/4 169/3/4 173/3/4
f 170/2/4 171/2/4 174/2/4
f 173/3/4 170/3/4 174/3/4
f 171/2/4 159/2/4 175/2/4
f 174/2/4 171/2/4 175/2/4
f 175/2/4 159/2/4 176/2/4
f 173/2/4 174/2/4 177/2/4
f 172/2/4 173/2/4 177/2/4
f 174/2/4 175/2/4 177/2/4
f 177/2/4 175/2/4 178/2/4
f 179/2/4 180/2/4 181/2/4
f 181/2/4 180/2/4 182/2/4
f 182/2/4 180/2/4 183/2/4
f 181/3/4 182/3/4 185/3/4
f 183/2/4 184/2/4 185/2/4
f 182/2/4 183/2/4 185/2/4
f 185/2/4 184/2/4 186/2/4
f 186/2/4 184/2/4 187/2/4
f 185/3/4 186/3/4 189/3/4
f 187/2/4 188/2/4 189/2/4
f 186/2/4 187/2/4 189/2/4
f 189/2/4 188/2/4 190/2/4
f 185/3/4 189/3/4 191/3/4
f 189/3/4 190/3/4 191/3/4
f 190/2/4 188/2/4 192/2/4
f 191/3/4 190/3/4 192/3/4
f 181/3/4 185/3/4 193/3/4
f 185/3/4 191/3/4 193/3/4
f 191/2/4 192/2/4 194/2/4
f 193/3/4 191/3/4 194/3/4
f 192/2/4 188/2/4 195/2/4
f 194/2/4 192/2/4 195/2/4
f 195/2/4 188/2/4 196/2/4
f 179/2/4 181/2/4 197/2/4
f 181/3/4 193/3/4 197/3/4
f 193/2/4 194/2/4 198/2/4
f 197/3/4 193/3/4 198/3/4
f 194/2/4 195/2/4 198/2/4
f 198/2/4 195/2/4 199/2/4
f 199/2/4 195/2/4 200/2/4
f 179/2/4 197/2/4 201/2/4
f 197/2/4 198/2/4 201/2/4
f 198/2/4 199/2/4 201/2/4
f 201/2/4 199/2/4 202/2/4
f 206/2/5 204/2/5 203/2/5
f 207/2/5 204/2/5 206/2/5
f 208/2/5 204/2/5 207/2/5
f 209/2/5 204/2/5 208/2/5
f 211/2/5 206/2/5 205/2/5
f 211/2/5 207/2/5 206/2/5
f 212/2/5 207/2/5 211/2/5
f 213/2/5 210/2/5 209/2/5
f 213/2/5 209/2/5 208/2/5
f 214/2/5 210/2/5 213/2/5
f 215/2/5 211/2/5 205/2/5
f 218/2/5 210/2/5 214/2/5
f 219/2/5 216/2/5 215/2/5
f 219/2/5 215/2/5 205/2/5
f 220/2/5 216/2/5 219/2/5
f 221/2/5 216/2/5 220/2/5
f 222/2/5 218/2/5 217/2/5
f 223/2/5 210/2/5 218/2/5
f 223/2/5 218/2/5 222/2/5
f 224/2/5 210/2/5 223/2/5
f 225/2/5 221/2/5 220/2/5
f 225/2/5 222/2/5 221/2/5
f 225/2/5 223/2/5 222/2/5
f 226/2/5 223/2/5 225/2/5
f 230/1/5 228/1/5 227/1/5
f 231/1/5 228/1/5 230/1/5
f 233/1/5 230/1/5 229/1/5
f 233/1/5 232/1/5 231/1/5
f 233/1/5 231/1/5 230/1/5
f 234/1/5 232/1/5 233/1/5
f 235/1/5 232/1/5 234/1/5
f 236/1/5 232/1/5 235/1/5
f 237/1/5 235/1/5 234/1/5
f 238/1/5 235/1/5 237/1/5
f 239/2/6 240/2/6 243/2/6
f 243/2/6 240/2/6 244/2/6
f 241/2/6 242/2/6 245/2/6
f 245/2/6 242/2/6 246/2/6
f 247/2/6 248/2/6 251/2/6
f 251/2/6 248/2/6 252/2/6
f 249/2/6 250/2/6 253/2/6
f 253/2/6 250/2/6 254/2/6
f 255/2/6 256/2/6 257/2/6
f 257/2/6 256/2/6 258/2/6
f 259/2/6 260/2/6 263/2/6
f 263/2/6 260/2/6 264/2/6
f 261/2/6 262/2/6 265/2/6
f 265/2/6 262/2/6 266/2/6
f 267/2/6 268/2/6 269/2/6
f 269/2/6 268/2/6 270/2/6
f 271/2/6 272/2/6 273/2/6
f 273/2/6 272/2/6 274/2/6
f 275/2/6 276/2/6 277/2/6
f 277/2/6 276/2/6 278/2/6
f 275/2/6 277/2/6 279/2/6
f 277/3/6 278/3/6 279/3/6
f 278/2/6 276/2/6 280/2/6
f 279/3/6 278/3/6 280/3/6
f 275/2/6 279/2/6 281/2/6
f 279/2/6 280/2/6 281/2/6
f 280/2/6 276/2/6 282/2/6
f 281/2/6 280/2/6 282/2/6
