# MagicaVoxel @ Ephtracy

# group
o 

# material
mtllib Asteroid.mtl
usemtl palette

# normals
vn -1 0 0
vn 1 0 0
vn 0 0 1
vn 0 0 -1
vn 0 -1 0
vn 0 1 0

# texcoords
vt 0.908203 0.5
vt 0.916016 0.5
vt 0.962891 0.5

# verts
v -0.4 -0.2 0.1
v -0.4 -0.2 -0.1
v -0.4 -0.1 0.2
v -0.4 -0.1 0.1
v -0.4 -0.1 -0.1
v -0.4 -0.1 -0.2
v -0.4 0 0.2
v -0.4 0 0.1
v -0.4 0 -0.1
v -0.4 0 -0.2
v -0.4 0.1 0.2
v -0.4 0.1 0.1
v -0.4 0.1 0
v -0.4 0.1 -0.1
v -0.4 0.1 -0.2
v -0.4 0.2 0.1
v -0.4 0.2 0
v -0.4 0.2 -0.1
v -0.3 -0.3 0.2
v -0.3 -0.3 0.1
v -0.3 -0.3 0
v -0.3 -0.3 -0.2
v -0.3 -0.2 0.3
v -0.3 -0.2 0.2
v -0.3 -0.2 0.1
v -0.3 -0.2 0
v -0.3 -0.2 -0.1
v -0.3 -0.2 -0.2
v -0.3 -0.2 -0.3
v -0.3 -0.1 0.3
v -0.3 -0.1 0.2
v -0.3 -0.1 0.1
v -0.3 -0.1 -0.1
v -0.3 -0.1 -0.2
v -0.3 -0.1 -0.3
v -0.3 0 0.3
v -0.3 0 0.2
v -0.3 0 -0.2
v -0.3 0 -0.3
v -0.3 0.1 0.3
v -0.3 0.1 0.2
v -0.3 0.1 0.1
v -0.3 0.1 -0.1
v -0.3 0.1 -0.2
v -0.3 0.2 0.3
v -0.3 0.2 0.2
v -0.3 0.2 0.1
v -0.3 0.2 0
v -0.3 0.2 -0.1
v -0.3 0.2 -0.2
v -0.3 0.2 -0.3
v -0.3 0.3 0.2
v -0.3 0.3 0.1
v -0.3 0.3 0
v -0.3 0.3 -0.2
v -0.2 -0.4 0.1
v -0.2 -0.4 0
v -0.2 -0.4 -0.1
v -0.2 -0.3 0.3
v -0.2 -0.3 0.2
v -0.2 -0.3 0.1
v -0.2 -0.3 0
v -0.2 -0.3 -0.1
v -0.2 -0.3 -0.2
v -0.2 -0.3 -0.3
v -0.2 -0.2 0.3
v -0.2 -0.2 0.2
v -0.2 -0.2 -0.2
v -0.2 -0.2 -0.3
v -0.2 -0.1 0.4
v -0.2 -0.1 0.3
v -0.2 -0.1 -0.3
v -0.2 -0.1 -0.4
v -0.2 0 0.4
v -0.2 0 0.3
v -0.2 0 -0.3
v -0.2 0 -0.4
v -0.2 0.1 0.4
v -0.2 0.1 0.3
v -0.2 0.1 -0.3
v -0.2 0.1 -0.4
v -0.2 0.2 0.3
v -0.2 0.2 0.2
v -0.2 0.2 -0.2
v -0.2 0.2 -0.3
v -0.2 0.3 0.3
v -0.2 0.3 0.2
v -0.2 0.3 0.1
v -0.2 0.3 0
v -0.2 0.3 -0.1
v -0.2 0.3 -0.2
v -0.2 0.3 -0.3
v -0.2 0.4 0.1
v -0.2 0.4 -0.1
v -0.1 -0.4 0.2
v -0.1 -0.4 0.1
v -0.1 -0.4 -0.1
v -0.1 -0.4 -0.2
v -0.1 -0.3 0.2
v -0.1 -0.3 0.1
v -0.1 -0.3 -0.1
v -0.1 -0.3 -0.2
v -0.1 -0.2 0.4
v -0.1 -0.2 0.3
v -0.1 -0.2 -0.3
v -0.1 -0.2 -0.4
v -0.1 -0.1 0.4
v -0.1 -0.1 0.3
v -0.1 -0.1 -0.3
v -0.1 -0.1 -0.4
v -0.1 0.1 0.4
v -0.1 0.1 0.3
v -0.1 0.1 -0.3
v -0.1 0.1 -0.4
v -0.1 0.2 0.4
v -0.1 0.2 0.3
v -0.1 0.2 -0.3
v -0.1 0.2 -0.4
v -0.1 0.3 0.2
v -0.1 0.3 0.1
v -0.1 0.3 -0.1
v -0.1 0.3 -0.2
v -0.1 0.4 0.2
v -0.1 0.4 0.1
v -0.1 0.4 -0.1
v -0.1 0.4 -0.2
v 0.1 -0.4 0.2
v 0.1 -0.4 0.1
v 0.1 -0.4 -0.1
v 0.1 -0.4 -0.2
v 0.1 -0.3 0.2
v 0.1 -0.3 0.1
v 0.1 -0.3 -0.1
v 0.1 -0.3 -0.2
v 0.1 -0.2 0.4
v 0.1 -0.2 0.3
v 0.1 -0.2 -0.3
v 0.1 -0.2 -0.4
v 0.1 -0.1 0.4
v 0.1 -0.1 0.3
v 0.1 -0.1 -0.3
v 0.1 -0.1 -0.4
v 0.1 0.1 0.4
v 0.1 0.1 0.3
v 0.1 0.1 -0.3
v 0.1 0.1 -0.4
v 0.1 0.2 0.4
v 0.1 0.2 0.3
v 0.1 0.2 -0.3
v 0.1 0.2 -0.4
v 0.1 0.3 0.2
v 0.1 0.3 0.1
v 0.1 0.3 -0.1
v 0.1 0.3 -0.2
v 0.1 0.4 0.2
v 0.1 0.4 0.1
v 0.1 0.4 -0.1
v 0.1 0.4 -0.2
v 0.2 -0.4 0.1
v 0.2 -0.4 0
v 0.2 -0.4 -0.1
v 0.2 -0.3 0.3
v 0.2 -0.3 0.2
v 0.2 -0.3 0.1
v 0.2 -0.3 0
v 0.2 -0.3 -0.1
v 0.2 -0.3 -0.2
v 0.2 -0.3 -0.3
v 0.2 -0.2 0.3
v 0.2 -0.2 0.2
v 0.2 -0.2 -0.2
v 0.2 -0.2 -0.3
v 0.2 -0.1 0.4
v 0.2 -0.1 0.3
v 0.2 -0.1 -0.3
v 0.2 -0.1 -0.4
v 0.2 0 0.3
v 0.2 0 -0.3
v 0.2 0.1 0.4
v 0.2 0.1 0.3
v 0.2 0.1 -0.3
v 0.2 0.1 -0.4
v 0.2 0.2 0.3
v 0.2 0.2 0.2
v 0.2 0.2 -0.2
v 0.2 0.2 -0.3
v 0.2 0.3 0.3
v 0.2 0.3 0.2
v 0.2 0.3 0.1
v 0.2 0.3 0
v 0.2 0.3 -0.1
v 0.2 0.3 -0.2
v 0.2 0.3 -0.3
v 0.2 0.4 0.1
v 0.2 0.4 -0.1
v 0.3 -0.3 0.2
v 0.3 -0.3 0
v 0.3 -0.3 -0.1
v 0.3 -0.3 -0.2
v 0.3 -0.2 0.3
v 0.3 -0.2 0.2
v 0.3 -0.2 0.1
v 0.3 -0.2 0
v 0.3 -0.2 -0.1
v 0.3 -0.2 -0.2
v 0.3 -0.2 -0.3
v 0.3 -0.1 0.2
v 0.3 -0.1 0.1
v 0.3 -0.1 -0.1
v 0.3 -0.1 -0.2
v 0.3 -0.1 -0.3
v 0.3 0 0.3
v 0.3 0 0.2
v 0.3 0 -0.2
v 0.3 0 -0.3
v 0.3 0.1 0.3
v 0.3 0.1 0.2
v 0.3 0.1 0.1
v 0.3 0.1 -0.1
v 0.3 0.1 -0.2
v 0.3 0.2 0.3
v 0.3 0.2 0.2
v 0.3 0.2 0.1
v 0.3 0.2 0
v 0.3 0.2 -0.1
v 0.3 0.2 -0.2
v 0.3 0.2 -0.3
v 0.3 0.3 0.2
v 0.3 0.3 0.1
v 0.3 0.3 0
v 0.3 0.3 -0.2
v 0.4 -0.2 0.1
v 0.4 -0.2 0
v 0.4 -0.2 -0.1
v 0.4 -0.1 0.2
v 0.4 -0.1 0.1
v 0.4 -0.1 0
v 0.4 -0.1 -0.1
v 0.4 -0.1 -0.2
v 0.4 0 0
v 0.4 0 -0.2
v 0.4 0.1 0.2
v 0.4 0.1 0.1
v 0.4 0.1 -0.1
v 0.4 0.1 -0.2
v 0.4 0.2 0.1
v 0.4 0.2 0
v 0.4 0.2 -0.1
v -0.2 -0.1 0.4
v -0.2 0 0.4
v -0.2 0.1 0.4
v -0.1 -0.2 0.4
v -0.1 -0.1 0.4
v -0.1 0 0.4
v -0.1 0.1 0.4
v -0.1 0.2 0.4
v 0 -0.2 0.4
v 0 -0.1 0.4
v 0 0.1 0.4
v 0 0.2 0.4
v 0.1 -0.2 0.4
v 0.1 -0.1 0.4
v 0.1 0.1 0.4
v 0.1 0.2 0.4
v 0.2 -0.1 0.4
v 0.2 0.1 0.4
v -0.3 -0.2 0.3
v -0.3 -0.1 0.3
v -0.3 0 0.3
v -0.3 0.1 0.3
v -0.3 0.2 0.3
v -0.2 -0.3 0.3
v -0.2 -0.2 0.3
v -0.2 -0.1 0.3
v -0.2 0 0.3
v -0.2 0.1 0.3
v -0.2 0.2 0.3
v -0.2 0.3 0.3
v -0.1 -0.2 0.3
v -0.1 -0.1 0.3
v -0.1 0.1 0.3
v -0.1 0.2 0.3
v 0 -0.2 0.3
v 0 0.2 0.3
v 0.1 -0.2 0.3
v 0.1 -0.1 0.3
v 0.1 0.1 0.3
v 0.1 0.2 0.3
v 0.1 0.3 0.3
v 0.2 -0.3 0.3
v 0.2 -0.2 0.3
v 0.2 -0.1 0.3
v 0.2 0 0.3
v 0.2 0.1 0.3
v 0.2 0.2 0.3
v 0.2 0.3 0.3
v 0.3 -0.2 0.3
v 0.3 0 0.3
v 0.3 0.1 0.3
v 0.3 0.2 0.3
v -0.4 -0.1 0.2
v -0.4 0 0.2
v -0.4 0.1 0.2
v -0.3 -0.3 0.2
v -0.3 -0.2 0.2
v -0.3 -0.1 0.2
v -0.3 0 0.2
v -0.3 0.1 0.2
v -0.3 0.2 0.2
v -0.3 0.3 0.2
v -0.2 -0.3 0.2
v -0.2 -0.2 0.2
v -0.2 0.2 0.2
v -0.2 0.3 0.2
v -0.1 -0.4 0.2
v -0.1 -0.3 0.2
v -0.1 0.3 0.2
v -0.1 0.4 0.2
v 0 -0.4 0.2
v 0 -0.3 0.2
v 0.1 -0.4 0.2
v 0.1 -0.3 0.2
v 0.1 0.3 0.2
v 0.1 0.4 0.2
v 0.2 -0.3 0.2
v 0.2 -0.2 0.2
v 0.2 0.2 0.2
v 0.2 0.3 0.2
v 0.3 -0.3 0.2
v 0.3 -0.2 0.2
v 0.3 -0.1 0.2
v 0.3 0 0.2
v 0.3 0.1 0.2
v 0.3 0.2 0.2
v 0.3 0.3 0.2
v 0.4 -0.1 0.2
v 0.4 0.1 0.2
v -0.4 -0.2 0.1
v -0.4 -0.1 0.1
v -0.4 0.1 0.1
v -0.4 0.2 0.1
v -0.3 -0.2 0.1
v -0.3 -0.1 0.1
v -0.3 0.1 0.1
v -0.3 0.2 0.1
v -0.2 -0.4 0.1
v -0.2 -0.3 0.1
v -0.2 0.3 0.1
v -0.2 0.4 0.1
v -0.1 -0.4 0.1
v -0.1 -0.3 0.1
v -0.1 0.3 0.1
v -0.1 0.4 0.1
v 0.1 -0.4 0.1
v 0.1 -0.3 0.1
v 0.1 0.3 0.1
v 0.1 0.4 0.1
v 0.2 -0.4 0.1
v 0.2 -0.3 0.1
v 0.2 0.3 0.1
v 0.2 0.4 0.1
v 0.3 -0.2 0.1
v 0.3 -0.1 0.1
v 0.3 0.1 0.1
v 0.3 0.2 0.1
v 0.4 -0.2 0.1
v 0.4 -0.1 0.1
v 0.4 0.1 0.1
v 0.4 0.2 0.1
v -0.4 -0.2 -0.1
v -0.4 -0.1 -0.1
v -0.4 0.1 -0.1
v -0.4 0.2 -0.1
v -0.3 -0.2 -0.1
v -0.3 -0.1 -0.1
v -0.3 0.1 -0.1
v -0.3 0.2 -0.1
v -0.2 -0.4 -0.1
v -0.2 -0.3 -0.1
v -0.2 0.3 -0.1
v -0.2 0.4 -0.1
v -0.1 -0.4 -0.1
v -0.1 -0.3 -0.1
v -0.1 0.3 -0.1
v -0.1 0.4 -0.1
v 0.1 -0.4 -0.1
v 0.1 -0.3 -0.1
v 0.1 0.3 -0.1
v 0.1 0.4 -0.1
v 0.2 -0.4 -0.1
v 0.2 -0.3 -0.1
v 0.2 0.3 -0.1
v 0.2 0.4 -0.1
v 0.3 -0.2 -0.1
v 0.3 -0.1 -0.1
v 0.3 0.1 -0.1
v 0.3 0.2 -0.1
v 0.4 -0.2 -0.1
v 0.4 -0.1 -0.1
v 0.4 0.1 -0.1
v 0.4 0.2 -0.1
v -0.4 -0.1 -0.2
v -0.4 0 -0.2
v -0.4 0.1 -0.2
v -0.3 -0.3 -0.2
v -0.3 -0.2 -0.2
v -0.3 -0.1 -0.2
v -0.3 0 -0.2
v -0.3 0.1 -0.2
v -0.3 0.2 -0.2
v -0.3 0.3 -0.2
v -0.2 -0.3 -0.2
v -0.2 -0.2 -0.2
v -0.2 0.2 -0.2
v -0.2 0.3 -0.2
v -0.1 -0.4 -0.2
v -0.1 -0.3 -0.2
v -0.1 0.3 -0.2
v -0.1 0.4 -0.2
v 0 -0.4 -0.2
v 0 -0.3 -0.2
v 0.1 -0.4 -0.2
v 0.1 -0.3 -0.2
v 0.1 0.3 -0.2
v 0.1 0.4 -0.2
v 0.2 -0.3 -0.2
v 0.2 -0.2 -0.2
v 0.2 0.2 -0.2
v 0.2 0.3 -0.2
v 0.3 -0.3 -0.2
v 0.3 -0.2 -0.2
v 0.3 -0.1 -0.2
v 0.3 0 -0.2
v 0.3 0.1 -0.2
v 0.3 0.2 -0.2
v 0.3 0.3 -0.2
v 0.4 -0.1 -0.2
v 0.4 0 -0.2
v 0.4 0.1 -0.2
v -0.3 -0.2 -0.3
v -0.3 -0.1 -0.3
v -0.3 0 -0.3
v -0.3 0.2 -0.3
v -0.2 -0.3 -0.3
v -0.2 -0.2 -0.3
v -0.2 -0.1 -0.3
v -0.2 0 -0.3
v -0.2 0.1 -0.3
v -0.2 0.2 -0.3
v -0.2 0.3 -0.3
v -0.1 -0.2 -0.3
v -0.1 -0.1 -0.3
v -0.1 0.1 -0.3
v -0.1 0.2 -0.3
v -0.1 0.3 -0.3
v 0 -0.3 -0.3
v 0 -0.2 -0.3
v 0.1 -0.2 -0.3
v 0.1 -0.1 -0.3
v 0.1 0.1 -0.3
v 0.1 0.2 -0.3
v 0.1 0.3 -0.3
v 0.2 -0.3 -0.3
v 0.2 -0.2 -0.3
v 0.2 -0.1 -0.3
v 0.2 0 -0.3
v 0.2 0.1 -0.3
v 0.2 0.2 -0.3
v 0.2 0.3 -0.3
v 0.3 -0.2 -0.3
v 0.3 -0.1 -0.3
v 0.3 0 -0.3
v 0.3 0.2 -0.3
v -0.2 -0.1 -0.4
v -0.2 0 -0.4
v -0.2 0.1 -0.4
v -0.1 -0.2 -0.4
v -0.1 -0.1 -0.4
v -0.1 0 -0.4
v -0.1 0.1 -0.4
v -0.1 0.2 -0.4
v 0.1 -0.2 -0.4
v 0.1 -0.1 -0.4
v 0.1 0.1 -0.4
v 0.1 0.2 -0.4
v 0.2 -0.1 -0.4
v 0.2 0.1 -0.4
v -0.1 -0.4 0.2
v 0 -0.4 0.2
v 0.1 -0.4 0.2
v -0.2 -0.4 0.1
v -0.1 -0.4 0.1
v 0 -0.4 0.1
v 0.1 -0.4 0.1
v 0.2 -0.4 0.1
v -0.2 -0.4 0
v -0.1 -0.4 0
v 0 -0.4 0
v 0.1 -0.4 0
v 0.2 -0.4 0
v -0.2 -0.4 -0.1
v -0.1 -0.4 -0.1
v 0.1 -0.4 -0.1
v 0.2 -0.4 -0.1
v -0.1 -0.4 -0.2
v 0 -0.4 -0.2
v 0.1 -0.4 -0.2
v -0.2 -0.3 0.3
v 0.2 -0.3 0.3
v -0.3 -0.3 0.2
v -0.2 -0.3 0.2
v -0.1 -0.3 0.2
v 0 -0.3 0.2
v 0.1 -0.3 0.2
v 0.2 -0.3 0.2
v 0.3 -0.3 0.2
v -0.3 -0.3 0.1
v -0.2 -0.3 0.1
v -0.1 -0.3 0.1
v 0.1 -0.3 0.1
v 0.2 -0.3 0.1
v -0.3 -0.3 0
v -0.2 -0.3 0
v 0.2 -0.3 0
v 0.3 -0.3 0
v -0.2 -0.3 -0.1
v -0.1 -0.3 -0.1
v 0.1 -0.3 -0.1
v 0.2 -0.3 -0.1
v 0.3 -0.3 -0.1
v -0.3 -0.3 -0.2
v -0.2 -0.3 -0.2
v -0.1 -0.3 -0.2
v 0 -0.3 -0.2
v 0.1 -0.3 -0.2
v 0.2 -0.3 -0.2
v 0.3 -0.3 -0.2
v -0.2 -0.3 -0.3
v 0 -0.3 -0.3
v 0.2 -0.3 -0.3
v -0.1 -0.2 0.4
v 0 -0.2 0.4
v 0.1 -0.2 0.4
v -0.3 -0.2 0.3
v -0.2 -0.2 0.3
v -0.1 -0.2 0.3
v 0 -0.2 0.3
v 0.1 -0.2 0.3
v 0.2 -0.2 0.3
v 0.3 -0.2 0.3
v -0.3 -0.2 0.2
v -0.2 -0.2 0.2
v 0.2 -0.2 0.2
v 0.3 -0.2 0.2
v -0.4 -0.2 0.1
v -0.3 -0.2 0.1
v 0.3 -0.2 0.1
v 0.4 -0.2 0.1
v -0.3 -0.2 0
v 0.3 -0.2 0
v 0.4 -0.2 0
v -0.4 -0.2 -0.1
v -0.3 -0.2 -0.1
v 0.3 -0.2 -0.1
v 0.4 -0.2 -0.1
v -0.3 -0.2 -0.2
v -0.2 -0.2 -0.2
v 0.2 -0.2 -0.2
v 0.3 -0.2 -0.2
v -0.3 -0.2 -0.3
v -0.2 -0.2 -0.3
v -0.1 -0.2 -0.3
v 0 -0.2 -0.3
v 0.1 -0.2 -0.3
v 0.2 -0.2 -0.3
v 0.3 -0.2 -0.3
v -0.1 -0.2 -0.4
v 0.1 -0.2 -0.4
v -0.2 -0.1 0.4
v -0.1 -0.1 0.4
v 0.1 -0.1 0.4
v 0.2 -0.1 0.4
v -0.2 -0.1 0.3
v -0.1 -0.1 0.3
v 0.1 -0.1 0.3
v 0.2 -0.1 0.3
v -0.4 -0.1 0.2
v -0.3 -0.1 0.2
v 0.3 -0.1 0.2
v 0.4 -0.1 0.2
v -0.4 -0.1 0.1
v -0.3 -0.1 0.1
v 0.3 -0.1 0.1
v 0.4 -0.1 0.1
v -0.4 -0.1 -0.1
v -0.3 -0.1 -0.1
v 0.3 -0.1 -0.1
v 0.4 -0.1 -0.1
v -0.4 -0.1 -0.2
v -0.3 -0.1 -0.2
v 0.3 -0.1 -0.2
v 0.4 -0.1 -0.2
v -0.2 -0.1 -0.3
v -0.1 -0.1 -0.3
v 0.1 -0.1 -0.3
v 0.2 -0.1 -0.3
v -0.2 -0.1 -0.4
v -0.1 -0.1 -0.4
v 0.1 -0.1 -0.4
v 0.2 -0.1 -0.4
v -0.2 0.1 0.4
v -0.1 0.1 0.4
v 0.1 0.1 0.4
v 0.2 0.1 0.4
v -0.2 0.1 0.3
v -0.1 0.1 0.3
v 0.1 0.1 0.3
v 0.2 0.1 0.3
v -0.4 0.1 0.2
v -0.3 0.1 0.2
v 0.3 0.1 0.2
v 0.4 0.1 0.2
v -0.4 0.1 0.1
v -0.3 0.1 0.1
v 0.3 0.1 0.1
v 0.4 0.1 0.1
v -0.4 0.1 -0.1
v -0.3 0.1 -0.1
v 0.3 0.1 -0.1
v 0.4 0.1 -0.1
v -0.4 0.1 -0.2
v -0.3 0.1 -0.2
v 0.3 0.1 -0.2
v 0.4 0.1 -0.2
v -0.2 0.1 -0.3
v -0.1 0.1 -0.3
v 0.1 0.1 -0.3
v 0.2 0.1 -0.3
v -0.2 0.1 -0.4
v -0.1 0.1 -0.4
v 0.1 0.1 -0.4
v 0.2 0.1 -0.4
v -0.1 0.2 0.4
v 0 0.2 0.4
v 0.1 0.2 0.4
v -0.3 0.2 0.3
v -0.2 0.2 0.3
v -0.1 0.2 0.3
v 0 0.2 0.3
v 0.1 0.2 0.3
v 0.2 0.2 0.3
v 0.3 0.2 0.3
v -0.3 0.2 0.2
v -0.2 0.2 0.2
v 0.2 0.2 0.2
v 0.3 0.2 0.2
v -0.4 0.2 0.1
v -0.3 0.2 0.1
v 0.3 0.2 0.1
v 0.4 0.2 0.1
v -0.4 0.2 0
v -0.3 0.2 0
v 0.3 0.2 0
v 0.4 0.2 0
v -0.4 0.2 -0.1
v -0.3 0.2 -0.1
v 0.3 0.2 -0.1
v 0.4 0.2 -0.1
v -0.3 0.2 -0.2
v -0.2 0.2 -0.2
v 0.2 0.2 -0.2
v 0.3 0.2 -0.2
v -0.3 0.2 -0.3
v -0.2 0.2 -0.3
v -0.1 0.2 -0.3
v 0.1 0.2 -0.3
v 0.2 0.2 -0.3
v 0.3 0.2 -0.3
v -0.1 0.2 -0.4
v 0.1 0.2 -0.4
v -0.2 0.3 0.3
v 0.1 0.3 0.3
v 0.2 0.3 0.3
v -0.3 0.3 0.2
v -0.2 0.3 0.2
v -0.1 0.3 0.2
v 0.1 0.3 0.2
v 0.2 0.3 0.2
v 0.3 0.3 0.2
v -0.3 0.3 0.1
v -0.2 0.3 0.1
v -0.1 0.3 0.1
v 0.1 0.3 0.1
v 0.2 0.3 0.1
v 0.3 0.3 0.1
v -0.3 0.3 0
v -0.2 0.3 0
v 0.2 0.3 0
v 0.3 0.3 0
v -0.2 0.3 -0.1
v -0.1 0.3 -0.1
v 0.1 0.3 -0.1
v 0.2 0.3 -0.1
v -0.3 0.3 -0.2
v -0.2 0.3 -0.2
v -0.1 0.3 -0.2
v 0.1 0.3 -0.2
v 0.2 0.3 -0.2
v 0.3 0.3 -0.2
v -0.2 0.3 -0.3
v -0.1 0.3 -0.3
v 0.1 0.3 -0.3
v 0.2 0.3 -0.3
v -0.1 0.4 0.2
v 0.1 0.4 0.2
v -0.2 0.4 0.1
v -0.1 0.4 0.1
v 0.1 0.4 0.1
v 0.2 0.4 0.1
v -0.2 0.4 -0.1
v -0.1 0.4 -0.1
v 0.1 0.4 -0.1
v 0.2 0.4 -0.1
v -0.1 0.4 -0.2
v 0.1 0.4 -0.2

# faces
f 4/2/1 2/2/1 1/2/1
f 5/2/1 2/2/1 4/2/1
f 7/2/1 4/2/1 3/2/1
f 7/2/1 6/2/1 5/2/1
f 7/2/1 5/2/1 4/2/1
f 8/2/1 6/2/1 7/2/1
f 9/2/1 6/2/1 8/2/1
f 10/2/1 6/2/1 9/2/1
f 11/1/1 8/1/1 7/1/1
f 12/2/1 9/2/1 8/2/1
f 12/1/1 8/1/1 11/1/1
f 13/2/1 9/2/1 12/2/1
f 14/1/1 10/1/1 9/1/1
f 14/2/1 9/2/1 13/2/1
f 15/1/1 10/1/1 14/1/1
f 16/1/1 13/1/1 12/1/1
f 17/2/1 14/2/1 13/2/1
f 17/1/1 13/1/1 16/1/1
f 18/2/1 14/2/1 17/2/1
f 24/1/1 20/1/1 19/1/1
f 25/2/1 21/2/1 20/2/1
f 25/1/1 20/1/1 24/1/1
f 26/3/1 22/3/1 21/3/1
f 26/2/1 21/2/1 25/2/1
f 27/3/1 22/3/1 26/3/1
f 28/3/1 22/3/1 27/3/1
f 30/1/1 24/1/1 23/1/1
f 31/2/1 25/2/1 24/2/1
f 31/1/1 24/1/1 30/1/1
f 32/2/1 25/2/1 31/2/1
f 33/2/1 29/2/1 28/2/1
f 33/2/1 28/2/1 27/2/1
f 34/2/1 29/2/1 33/2/1
f 35/2/1 29/2/1 34/2/1
f 36/2/1 31/2/1 30/2/1
f 37/2/1 31/2/1 36/2/1
f 38/1/1 35/1/1 34/1/1
f 39/1/1 35/1/1 38/1/1
f 40/1/1 37/1/1 36/1/1
f 41/1/1 37/1/1 40/1/1
f 44/3/1 39/3/1 38/3/1
f 45/3/1 42/3/1 41/3/1
f 45/3/1 41/3/1 40/3/1
f 46/3/1 42/3/1 45/3/1
f 47/3/1 42/3/1 46/3/1
f 49/1/1 44/1/1 43/1/1
f 50/3/1 39/3/1 44/3/1
f 50/1/1 44/1/1 49/1/1
f 51/3/1 39/3/1 50/3/1
f 52/3/1 47/3/1 46/3/1
f 53/1/1 48/1/1 47/1/1
f 53/3/1 47/3/1 52/3/1
f 54/2/1 49/2/1 48/2/1
f 54/1/1 48/1/1 53/1/1
f 54/2/1 50/2/1 49/2/1
f 55/2/1 50/2/1 54/2/1
f 61/2/1 57/2/1 56/2/1
f 62/3/1 58/3/1 57/3/1
f 62/2/1 57/2/1 61/2/1
f 63/3/1 58/3/1 62/3/1
f 66/1/1 60/1/1 59/1/1
f 67/1/1 60/1/1 66/1/1
f 68/2/1 65/2/1 64/2/1
f 69/2/1 65/2/1 68/2/1
f 74/3/1 71/3/1 70/3/1
f 75/3/1 71/3/1 74/3/1
f 76/2/1 73/2/1 72/2/1
f 77/2/1 73/2/1 76/2/1
f 78/2/1 75/2/1 74/2/1
f 79/2/1 75/2/1 78/2/1
f 80/1/1 77/1/1 76/1/1
f 81/1/1 77/1/1 80/1/1
f 86/2/1 83/2/1 82/2/1
f 87/2/1 83/2/1 86/2/1
f 91/2/1 85/2/1 84/2/1
f 92/2/1 85/2/1 91/2/1
f 93/2/1 90/2/1 89/2/1
f 93/2/1 89/2/1 88/2/1
f 94/2/1 90/2/1 93/2/1
f 99/2/1 96/2/1 95/2/1
f 100/2/1 96/2/1 99/2/1
f 101/2/1 98/2/1 97/2/1
f 102/2/1 98/2/1 101/2/1
f 107/3/1 104/3/1 103/3/1
f 108/3/1 104/3/1 107/3/1
f 109/2/1 106/2/1 105/2/1
f 110/2/1 106/2/1 109/2/1
f 115/2/1 112/2/1 111/2/1
f 116/2/1 112/2/1 115/2/1
f 117/3/1 114/3/1 113/3/1
f 118/3/1 114/3/1 117/3/1
f 123/1/1 120/1/1 119/1/1
f 124/1/1 120/1/1 123/1/1
f 125/2/1 122/2/1 121/2/1
f 126/2/1 122/2/1 125/2/1
f 127/1/2 128/1/2 131/1/2
f 131/1/2 128/1/2 132/1/2
f 129/3/2 130/3/2 133/3/2
f 133/3/2 130/3/2 134/3/2
f 135/2/2 136/2/2 139/2/2
f 139/2/2 136/2/2 140/2/2
f 137/2/2 138/2/2 141/2/2
f 141/2/2 138/2/2 142/2/2
f 143/1/2 144/1/2 147/1/2
f 147/1/2 144/1/2 148/1/2
f 145/3/2 146/3/2 149/3/2
f 149/3/2 146/3/2 150/3/2
f 151/1/2 152/1/2 155/1/2
f 155/1/2 152/1/2 156/1/2
f 153/2/2 154/2/2 157/2/2
f 157/2/2 154/2/2 158/2/2
f 159/1/2 160/1/2 164/1/2
f 160/3/2 161/3/2 165/3/2
f 164/1/2 160/1/2 165/1/2
f 165/3/2 161/3/2 166/3/2
f 162/1/2 163/1/2 169/1/2
f 169/1/2 163/1/2 170/1/2
f 167/1/2 168/1/2 171/1/2
f 171/1/2 168/1/2 172/1/2
f 173/1/2 174/1/2 177/1/2
f 175/2/2 176/2/2 178/2/2
f 173/1/2 177/1/2 179/1/2
f 179/1/2 177/1/2 180/1/2
f 178/2/2 176/2/2 181/2/2
f 181/2/2 176/2/2 182/2/2
f 183/3/2 184/3/2 187/3/2
f 187/3/2 184/3/2 188/3/2
f 185/2/2 186/2/2 192/2/2
f 192/2/2 186/2/2 193/2/2
f 190/1/2 191/1/2 194/1/2
f 189/1/2 190/1/2 194/1/2
f 194/1/2 191/1/2 195/1/2
f 196/3/2 197/3/2 201/3/2
f 201/3/2 197/3/2 202/3/2
f 197/2/2 198/2/2 203/2/2
f 202/3/2 197/3/2 203/3/2
f 198/1/2 199/1/2 204/1/2
f 203/2/2 198/2/2 204/2/2
f 204/1/2 199/1/2 205/1/2
f 201/3/2 202/3/2 207/3/2
f 200/2/2 201/2/2 207/2/2
f 207/3/2 202/3/2 208/3/2
f 204/2/2 205/2/2 209/2/2
f 205/1/2 206/1/2 210/1/2
f 209/2/2 205/2/2 210/2/2
f 210/1/2 206/1/2 211/1/2
f 200/2/2 207/2/2 212/2/2
f 212/2/2 207/2/2 213/2/2
f 210/2/2 211/2/2 214/2/2
f 214/2/2 211/2/2 215/2/2
f 212/1/2 213/1/2 216/1/2
f 216/1/2 213/1/2 217/1/2
f 214/1/2 215/1/2 220/1/2
f 217/3/2 218/3/2 221/3/2
f 216/3/2 217/3/2 221/3/2
f 221/3/2 218/3/2 222/3/2
f 222/3/2 218/3/2 223/3/2
f 219/3/2 220/3/2 225/3/2
f 220/1/2 215/1/2 226/1/2
f 225/3/2 220/3/2 226/3/2
f 226/1/2 215/1/2 227/1/2
f 222/3/2 223/3/2 228/3/2
f 223/2/2 224/2/2 229/2/2
f 228/3/2 223/3/2 229/3/2
f 224/1/2 225/1/2 230/1/2
f 229/2/2 224/2/2 230/2/2
f 225/1/2 226/1/2 230/1/2
f 230/1/2 226/1/2 231/1/2
f 232/3/2 233/3/2 236/3/2
f 233/2/2 234/2/2 237/2/2
f 236/3/2 233/3/2 237/3/2
f 237/2/2 234/2/2 238/2/2
f 235/2/2 236/2/2 240/2/2
f 238/2/2 239/2/2 240/2/2
f 237/2/2 238/2/2 240/2/2
f 236/2/2 237/2/2 240/2/2
f 240/2/2 239/2/2 241/2/2
f 235/2/2 240/2/2 242/2/2
f 242/2/2 240/2/2 243/2/2
f 240/3/2 241/3/2 244/3/2
f 244/3/2 241/3/2 245/3/2
f 243/2/2 240/2/2 246/2/2
f 240/3/2 244/3/2 247/3/2
f 246/2/2 240/2/2 247/2/2
f 247/3/2 244/3/2 248/3/2
f 253/3/3 250/3/3 249/3/3
f 254/2/3 251/2/3 250/2/3
f 254/3/3 250/3/3 253/3/3
f 255/2/3 251/2/3 254/2/3
f 257/3/3 253/3/3 252/3/3
f 257/3/3 254/3/3 253/3/3
f 257/3/3 255/3/3 254/3/3
f 258/3/3 255/3/3 257/3/3
f 259/2/3 256/2/3 255/2/3
f 259/3/3 255/3/3 258/3/3
f 260/2/3 256/2/3 259/2/3
f 261/2/3 258/2/3 257/2/3
f 262/3/3 259/3/3 258/3/3
f 262/2/3 258/2/3 261/2/3
f 263/1/3 260/1/3 259/1/3
f 263/3/3 259/3/3 262/3/3
f 264/1/3 260/1/3 263/1/3
f 265/1/3 263/1/3 262/1/3
f 266/1/3 263/1/3 265/1/3
f 273/1/3 268/1/3 267/1/3
f 274/2/3 269/2/3 268/2/3
f 274/1/3 268/1/3 273/1/3
f 275/1/3 270/1/3 269/1/3
f 275/2/3 269/2/3 274/2/3
f 276/3/3 271/3/3 270/3/3
f 276/1/3 270/1/3 275/1/3
f 277/3/3 271/3/3 276/3/3
f 279/1/3 273/1/3 272/1/3
f 279/1/3 274/1/3 273/1/3
f 280/1/3 274/1/3 279/1/3
f 281/1/3 277/1/3 276/1/3
f 282/2/3 278/2/3 277/2/3
f 282/1/3 277/1/3 281/1/3
f 283/1/3 279/1/3 272/1/3
f 284/2/3 278/2/3 282/2/3
f 285/1/3 283/1/3 272/1/3
f 288/2/3 278/2/3 284/2/3
f 289/2/3 278/2/3 288/2/3
f 290/1/3 286/1/3 285/1/3
f 290/1/3 285/1/3 272/1/3
f 291/1/3 286/1/3 290/1/3
f 292/1/3 286/1/3 291/1/3
f 294/3/3 289/3/3 288/3/3
f 294/3/3 288/3/3 287/3/3
f 295/3/3 289/3/3 294/3/3
f 296/3/3 289/3/3 295/3/3
f 297/2/3 293/2/3 292/2/3
f 297/2/3 292/2/3 291/2/3
f 298/1/3 294/1/3 293/1/3
f 298/2/3 293/2/3 297/2/3
f 299/3/3 295/3/3 294/3/3
f 299/1/3 294/1/3 298/1/3
f 300/3/3 295/3/3 299/3/3
f 306/2/3 302/2/3 301/2/3
f 307/1/3 303/1/3 302/1/3
f 307/2/3 302/2/3 306/2/3
f 308/1/3 303/1/3 307/1/3
f 311/1/3 305/1/3 304/1/3
f 312/1/3 305/1/3 311/1/3
f 313/3/3 310/3/3 309/3/3
f 314/3/3 310/3/3 313/3/3
f 319/2/3 316/2/3 315/2/3
f 320/2/3 316/2/3 319/2/3
f 321/1/3 320/1/3 319/1/3
f 322/1/3 320/1/3 321/1/3
f 323/1/3 318/1/3 317/1/3
f 324/1/3 318/1/3 323/1/3
f 329/3/3 326/3/3 325/3/3
f 330/3/3 326/3/3 329/3/3
f 334/3/3 328/3/3 327/3/3
f 335/3/3 328/3/3 334/3/3
f 336/2/3 333/2/3 332/2/3
f 336/2/3 332/2/3 331/2/3
f 337/2/3 333/2/3 336/2/3
f 342/2/3 339/2/3 338/2/3
f 343/2/3 339/2/3 342/2/3
f 344/1/3 341/1/3 340/1/3
f 345/1/3 341/1/3 344/1/3
f 350/2/3 347/2/3 346/2/3
f 351/2/3 347/2/3 350/2/3
f 352/2/3 349/2/3 348/2/3
f 353/2/3 349/2/3 352/2/3
f 358/1/3 355/1/3 354/1/3
f 359/1/3 355/1/3 358/1/3
f 360/1/3 357/1/3 356/1/3
f 361/1/3 357/1/3 360/1/3
f 366/3/3 363/3/3 362/3/3
f 367/3/3 363/3/3 366/3/3
f 368/2/3 365/2/3 364/2/3
f 369/2/3 365/2/3 368/2/3
f 370/2/4 371/2/4 374/2/4
f 374/2/4 371/2/4 375/2/4
f 372/2/4 373/2/4 376/2/4
f 376/2/4 373/2/4 377/2/4
f 378/3/4 379/3/4 382/3/4
f 382/3/4 379/3/4 383/3/4
f 380/2/4 381/2/4 384/2/4
f 384/2/4 381/2/4 385/2/4
f 386/3/4 387/3/4 390/3/4
f 390/3/4 387/3/4 391/3/4
f 388/1/4 389/1/4 392/1/4
f 392/1/4 389/1/4 393/1/4
f 394/2/4 395/2/4 398/2/4
f 398/2/4 395/2/4 399/2/4
f 396/3/4 397/3/4 400/3/4
f 400/3/4 397/3/4 401/3/4
f 402/2/4 403/2/4 407/2/4
f 403/1/4 404/1/4 408/1/4
f 407/2/4 403/2/4 408/2/4
f 408/1/4 404/1/4 409/1/4
f 405/3/4 406/3/4 412/3/4
f 412/3/4 406/3/4 413/3/4
f 410/2/4 411/2/4 414/2/4
f 414/2/4 411/2/4 415/2/4
f 416/2/4 417/2/4 420/2/4
f 420/2/4 417/2/4 421/2/4
f 420/3/4 421/3/4 422/3/4
f 422/3/4 421/3/4 423/3/4
f 418/2/4 419/2/4 424/2/4
f 424/2/4 419/2/4 425/2/4
f 426/1/4 427/1/4 430/1/4
f 430/1/4 427/1/4 431/1/4
f 428/1/4 429/1/4 435/1/4
f 435/1/4 429/1/4 436/1/4
f 432/2/4 433/2/4 437/2/4
f 433/3/4 434/3/4 438/3/4
f 437/2/4 433/2/4 438/2/4
f 438/3/4 434/3/4 439/3/4
f 440/2/4 441/2/4 445/2/4
f 441/1/4 442/1/4 446/1/4
f 445/2/4 441/2/4 446/2/4
f 442/3/4 443/3/4 447/3/4
f 446/1/4 442/1/4 447/1/4
f 447/3/4 443/3/4 448/3/4
f 448/3/4 443/3/4 449/3/4
f 445/2/4 446/2/4 451/2/4
f 444/2/4 445/2/4 451/2/4
f 451/2/4 446/2/4 452/2/4
f 448/1/4 449/1/4 453/1/4
f 449/2/4 450/2/4 454/2/4
f 453/1/4 449/1/4 454/1/4
f 454/2/4 450/2/4 455/2/4
f 444/2/4 451/2/4 456/2/4
f 456/2/4 451/2/4 457/2/4
f 456/1/4 457/1/4 458/1/4
f 454/3/4 455/3/4 461/3/4
f 461/3/4 455/3/4 462/3/4
f 458/1/4 459/1/4 463/1/4
f 456/1/4 458/1/4 463/1/4
f 463/1/4 459/1/4 464/1/4
f 464/1/4 459/1/4 465/1/4
f 460/1/4 461/1/4 467/1/4
f 461/2/4 462/2/4 468/2/4
f 467/1/4 461/1/4 468/1/4
f 468/2/4 462/2/4 469/2/4
f 464/1/4 465/1/4 470/1/4
f 465/2/4 466/2/4 471/2/4
f 470/1/4 465/1/4 471/1/4
f 466/1/4 467/1/4 472/1/4
f 471/2/4 466/2/4 472/2/4
f 467/1/4 468/1/4 472/1/4
f 472/1/4 468/1/4 473/1/4
f 474/2/4 475/2/4 478/2/4
f 475/1/4 476/1/4 479/1/4
f 478/2/4 475/2/4 479/2/4
f 479/1/4 476/1/4 480/1/4
f 477/2/4 478/2/4 482/2/4
f 478/2/4 479/2/4 482/2/4
f 479/2/4 480/2/4 482/2/4
f 482/2/4 480/2/4 483/2/4
f 480/3/4 481/3/4 484/3/4
f 483/2/4 480/2/4 484/2/4
f 484/3/4 481/3/4 485/3/4
f 483/2/4 484/2/4 486/2/4
f 486/2/4 484/2/4 487/2/4
f 492/2/5 489/2/5 488/2/5
f 493/1/5 490/1/5 489/1/5
f 493/2/5 489/2/5 492/2/5
f 494/1/5 490/1/5 493/1/5
f 496/2/5 492/2/5 491/2/5
f 496/2/5 493/2/5 492/2/5
f 496/2/5 494/2/5 493/2/5
f 497/2/5 494/2/5 496/2/5
f 498/2/5 494/2/5 497/2/5
f 499/1/5 495/1/5 494/1/5
f 499/2/5 494/2/5 498/2/5
f 500/1/5 495/1/5 499/1/5
f 501/3/5 497/3/5 496/3/5
f 502/2/5 498/2/5 497/2/5
f 502/3/5 497/3/5 501/3/5
f 503/3/5 499/3/5 498/3/5
f 503/3/5 500/3/5 499/3/5
f 504/3/5 500/3/5 503/3/5
f 505/2/5 498/2/5 502/2/5
f 506/3/5 503/3/5 498/3/5
f 506/2/5 498/2/5 505/2/5
f 507/3/5 503/3/5 506/3/5
f 511/1/5 509/1/5 508/1/5
f 512/1/5 509/1/5 511/1/5
f 513/1/5 509/1/5 512/1/5
f 514/1/5 509/1/5 513/1/5
f 515/1/5 509/1/5 514/1/5
f 517/1/5 511/1/5 510/1/5
f 517/1/5 512/1/5 511/1/5
f 518/1/5 512/1/5 517/1/5
f 519/1/5 512/1/5 518/1/5
f 520/1/5 515/1/5 514/1/5
f 521/3/5 516/3/5 515/3/5
f 521/1/5 515/1/5 520/1/5
f 522/2/5 518/2/5 517/2/5
f 523/2/5 518/2/5 522/2/5
f 524/3/5 516/3/5 521/3/5
f 525/3/5 516/3/5 524/3/5
f 526/3/5 523/3/5 522/3/5
f 529/2/5 525/2/5 524/2/5
f 530/2/5 525/2/5 529/2/5
f 531/3/5 527/3/5 526/3/5
f 531/3/5 526/3/5 522/3/5
f 532/3/5 527/3/5 531/3/5
f 533/3/5 527/3/5 532/3/5
f 535/1/5 530/1/5 529/1/5
f 535/1/5 529/1/5 528/1/5
f 536/1/5 530/1/5 535/1/5
f 537/1/5 530/1/5 536/1/5
f 538/2/5 534/2/5 533/2/5
f 538/2/5 533/2/5 532/2/5
f 539/1/5 536/1/5 535/1/5
f 539/2/5 534/2/5 538/2/5
f 539/1/5 535/1/5 534/1/5
f 540/1/5 536/1/5 539/1/5
f 546/3/5 542/3/5 541/3/5
f 547/2/5 543/2/5 542/2/5
f 547/3/5 542/3/5 546/3/5
f 548/2/5 543/2/5 547/2/5
f 551/1/5 545/1/5 544/1/5
f 552/1/5 545/1/5 551/1/5
f 553/2/5 550/2/5 549/2/5
f 554/2/5 550/2/5 553/2/5
f 559/2/5 556/2/5 555/2/5
f 560/3/5 558/3/5 557/3/5
f 561/3/5 558/3/5 560/3/5
f 562/2/5 559/2/5 555/2/5
f 563/2/5 559/2/5 562/2/5
f 564/2/5 561/2/5 560/2/5
f 565/2/5 561/2/5 564/2/5
f 570/2/5 567/2/5 566/2/5
f 571/2/5 567/2/5 570/2/5
f 575/1/5 569/1/5 568/1/5
f 576/1/5 569/1/5 575/1/5
f 577/2/5 574/2/5 573/2/5
f 577/2/5 573/2/5 572/2/5
f 578/2/5 574/2/5 577/2/5
f 583/3/5 580/3/5 579/3/5
f 584/3/5 580/3/5 583/3/5
f 585/1/5 582/1/5 581/1/5
f 586/1/5 582/1/5 585/1/5
f 591/2/5 588/2/5 587/2/5
f 592/2/5 588/2/5 591/2/5
f 593/2/5 590/2/5 589/2/5
f 594/2/5 590/2/5 593/2/5
f 599/2/5 596/2/5 595/2/5
f 600/2/5 596/2/5 599/2/5
f 601/2/5 598/2/5 597/2/5
f 602/2/5 598/2/5 601/2/5
f 607/2/5 604/2/5 603/2/5
f 608/2/5 604/2/5 607/2/5
f 609/2/5 606/2/5 605/2/5
f 610/2/5 606/2/5 609/2/5
f 611/2/6 612/2/6 615/2/6
f 615/2/6 612/2/6 616/2/6
f 613/1/6 614/1/6 617/1/6
f 617/1/6 614/1/6 618/1/6
f 619/1/6 620/1/6 623/1/6
f 623/1/6 620/1/6 624/1/6
f 621/2/6 622/2/6 625/2/6
f 625/2/6 622/2/6 626/2/6
f 627/1/6 628/1/6 631/1/6
f 631/1/6 628/1/6 632/1/6
f 629/3/6 630/3/6 633/3/6
f 633/3/6 630/3/6 634/3/6
f 635/1/6 636/1/6 639/1/6
f 639/1/6 636/1/6 640/1/6
f 637/2/6 638/2/6 641/2/6
f 641/2/6 638/2/6 642/2/6
f 643/2/6 644/2/6 648/2/6
f 644/1/6 645/1/6 649/1/6
f 648/2/6 644/2/6 649/2/6
f 649/1/6 645/1/6 650/1/6
f 646/3/6 647/3/6 653/3/6
f 653/3/6 647/3/6 654/3/6
f 651/3/6 652/3/6 655/3/6
f 655/3/6 652/3/6 656/3/6
f 657/1/6 658/1/6 661/1/6
f 661/1/6 658/1/6 662/1/6
f 659/2/6 660/2/6 663/2/6
f 663/2/6 660/2/6 664/2/6
f 661/2/6 662/2/6 665/2/6
f 665/2/6 662/2/6 666/2/6
f 663/3/6 664/3/6 667/3/6
f 667/3/6 664/3/6 668/3/6
f 669/3/6 670/3/6 673/3/6
f 673/3/6 670/3/6 674/3/6
f 671/1/6 672/1/6 677/1/6
f 677/1/6 672/1/6 678/1/6
f 675/3/6 676/3/6 679/3/6
f 679/3/6 676/3/6 680/3/6
f 681/2/6 682/2/6 685/2/6
f 685/2/6 682/2/6 686/2/6
f 682/3/6 683/3/6 687/3/6
f 686/2/6 682/2/6 687/2/6
f 687/3/6 683/3/6 688/3/6
f 684/3/6 685/3/6 690/3/6
f 685/1/6 686/1/6 691/1/6
f 690/3/6 685/3/6 691/3/6
f 691/1/6 686/1/6 692/1/6
f 688/3/6 689/3/6 693/3/6
f 687/3/6 688/3/6 693/3/6
f 693/3/6 689/3/6 694/3/6
f 694/3/6 689/3/6 695/3/6
f 690/1/6 691/1/6 696/1/6
f 696/1/6 691/1/6 697/1/6
f 694/2/6 695/2/6 698/2/6
f 698/2/6 695/2/6 699/2/6
f 696/2/6 697/2/6 700/2/6
f 698/1/6 699/1/6 703/1/6
f 700/2/6 701/2/6 704/2/6
f 696/2/6 700/2/6 704/2/6
f 704/2/6 701/2/6 705/2/6
f 705/2/6 701/2/6 706/2/6
f 702/1/6 703/1/6 707/1/6
f 703/1/6 699/1/6 708/1/6
f 707/1/6 703/1/6 708/1/6
f 708/1/6 699/1/6 709/1/6
f 705/2/6 706/2/6 710/2/6
f 706/3/6 707/3/6 711/3/6
f 710/2/6 706/2/6 711/2/6
f 707/2/6 708/2/6 712/2/6
f 711/3/6 707/3/6 712/3/6
f 712/2/6 708/2/6 713/2/6
f 714/1/6 715/1/6 717/1/6
f 717/1/6 715/1/6 718/1/6
f 716/2/6 717/2/6 720/2/6
f 717/3/6 718/3/6 721/3/6
f 720/2/6 717/2/6 721/2/6
f 718/1/6 719/1/6 722/1/6
f 721/3/6 718/3/6 722/3/6
f 722/1/6 719/1/6 723/1/6
f 721/2/6 722/2/6 724/2/6
f 724/2/6 722/2/6 725/2/6
