# MagicaVoxel @ Ephtracy

# group
o 

# material
mtllib Planet.mtl
usemtl palette

# normals
vn -1 0 0
vn 1 0 0
vn 0 0 1
vn 0 0 -1
vn 0 -1 0
vn 0 1 0

# texcoords
vt 0.634766 0.5
vt 0.638672 0.5
vt 0.642578 0.5
vt 0.830078 0.5

# verts
v -0.4 -0.2 0.1
v -0.4 -0.2 -0.1
v -0.4 -0.1 0.2
v -0.4 -0.1 0.1
v -0.4 -0.1 -0.1
v -0.4 -0.1 -0.2
v -0.4 0 0.2
v -0.4 0 0.1
v -0.4 0.1 0.2
v -0.4 0.1 0.1
v -0.4 0.1 -0.1
v -0.4 0.1 -0.2
v -0.4 0.2 0.1
v -0.4 0.2 -0.1
v -0.3 -0.3 0.2
v -0.3 -0.3 -0.1
v -0.3 -0.3 -0.2
v -0.3 -0.2 0.3
v -0.3 -0.2 0.2
v -0.3 -0.2 0.1
v -0.3 -0.2 -0.1
v -0.3 -0.2 -0.2
v -0.3 -0.2 -0.3
v -0.3 -0.1 0.2
v -0.3 -0.1 0.1
v -0.3 -0.1 -0.1
v -0.3 -0.1 -0.2
v -0.3 0 0.3
v -0.3 0 0.2
v -0.3 0.1 0.2
v -0.3 0.1 0.1
v -0.3 0.1 -0.1
v -0.3 0.1 -0.2
v -0.3 0.1 -0.3
v -0.3 0.2 0.3
v -0.3 0.2 0.2
v -0.3 0.2 0.1
v -0.3 0.2 0
v -0.3 0.2 -0.1
v -0.3 0.2 -0.2
v -0.3 0.2 -0.3
v -0.3 0.3 0.2
v -0.3 0.3 0
v -0.3 0.3 -0.1
v -0.3 0.3 -0.2
v -0.2 -0.4 0.1
v -0.2 -0.4 -0.1
v -0.2 -0.3 0.3
v -0.2 -0.3 0.2
v -0.2 -0.3 0.1
v -0.2 -0.3 -0.1
v -0.2 -0.3 -0.2
v -0.2 -0.3 -0.3
v -0.2 -0.2 0.3
v -0.2 -0.2 0.2
v -0.2 -0.2 -0.2
v -0.2 -0.2 -0.3
v -0.2 -0.1 0.4
v -0.2 -0.1 0.3
v -0.2 -0.1 -0.3
v -0.2 -0.1 -0.4
v -0.2 0 0.3
v -0.2 0 -0.3
v -0.2 0 -0.4
v -0.2 0.1 0.4
v -0.2 0.1 0.3
v -0.2 0.1 -0.3
v -0.2 0.1 -0.4
v -0.2 0.2 0.3
v -0.2 0.2 0.2
v -0.2 0.2 -0.2
v -0.2 0.2 -0.3
v -0.2 0.3 0.3
v -0.2 0.3 0.2
v -0.2 0.3 0.1
v -0.2 0.3 0
v -0.2 0.3 -0.1
v -0.2 0.3 -0.2
v -0.2 0.3 -0.3
v -0.2 0.4 0.1
v -0.2 0.4 0
v -0.2 0.4 -0.1
v -0.1 -0.4 0.2
v -0.1 -0.4 0.1
v -0.1 -0.4 -0.1
v -0.1 -0.4 -0.2
v -0.1 -0.3 0.2
v -0.1 -0.3 0.1
v -0.1 -0.3 -0.1
v -0.1 -0.3 -0.2
v -0.1 -0.2 0.4
v -0.1 -0.2 0.3
v -0.1 -0.2 -0.3
v -0.1 -0.2 -0.4
v -0.1 -0.1 0.4
v -0.1 -0.1 0.3
v -0.1 -0.1 -0.3
v -0.1 -0.1 -0.4
v -0.1 0.1 0.4
v -0.1 0.1 0.3
v -0.1 0.1 -0.3
v -0.1 0.1 -0.4
v -0.1 0.2 0.4
v -0.1 0.2 0.3
v -0.1 0.2 -0.3
v -0.1 0.2 -0.4
v -0.1 0.3 0.2
v -0.1 0.3 0.1
v -0.1 0.3 -0.1
v -0.1 0.3 -0.2
v -0.1 0.4 0.2
v -0.1 0.4 0.1
v -0.1 0.4 -0.1
v -0.1 0.4 -0.2
v 0.1 -0.4 0.2
v 0.1 -0.4 0.1
v 0.1 -0.4 -0.1
v 0.1 -0.4 -0.2
v 0.1 -0.3 0.2
v 0.1 -0.3 0.1
v 0.1 -0.3 -0.1
v 0.1 -0.3 -0.2
v 0.1 -0.2 0.4
v 0.1 -0.2 0.3
v 0.1 -0.2 -0.3
v 0.1 -0.2 -0.4
v 0.1 -0.1 0.4
v 0.1 -0.1 0.3
v 0.1 -0.1 -0.3
v 0.1 -0.1 -0.4
v 0.1 0.1 0.4
v 0.1 0.1 0.3
v 0.1 0.1 -0.3
v 0.1 0.1 -0.4
v 0.1 0.2 0.4
v 0.1 0.2 0.3
v 0.1 0.2 -0.3
v 0.1 0.2 -0.4
v 0.1 0.3 0.2
v 0.1 0.3 0.1
v 0.1 0.3 -0.1
v 0.1 0.3 -0.2
v 0.1 0.4 0.2
v 0.1 0.4 0.1
v 0.1 0.4 -0.1
v 0.1 0.4 -0.2
v 0.2 -0.4 0.1
v 0.2 -0.4 0
v 0.2 -0.4 -0.1
v 0.2 -0.3 0.3
v 0.2 -0.3 0.2
v 0.2 -0.3 0.1
v 0.2 -0.3 0
v 0.2 -0.3 -0.1
v 0.2 -0.3 -0.2
v 0.2 -0.3 -0.3
v 0.2 -0.2 0.3
v 0.2 -0.2 0.2
v 0.2 -0.2 -0.2
v 0.2 -0.2 -0.3
v 0.2 -0.1 0.4
v 0.2 -0.1 0.3
v 0.2 -0.1 -0.3
v 0.2 -0.1 -0.4
v 0.2 0.1 0.4
v 0.2 0.1 0.3
v 0.2 0.1 -0.3
v 0.2 0.1 -0.4
v 0.2 0.2 0.3
v 0.2 0.2 0.2
v 0.2 0.2 -0.2
v 0.2 0.2 -0.3
v 0.2 0.3 0.3
v 0.2 0.3 0.2
v 0.2 0.3 0.1
v 0.2 0.3 0
v 0.2 0.3 -0.1
v 0.2 0.3 -0.2
v 0.2 0.3 -0.3
v 0.2 0.4 0.1
v 0.2 0.4 -0.1
v 0.3 -0.3 0.2
v 0.3 -0.3 0.1
v 0.3 -0.3 0
v 0.3 -0.3 -0.2
v 0.3 -0.2 0.3
v 0.3 -0.2 0.2
v 0.3 -0.2 0.1
v 0.3 -0.2 0
v 0.3 -0.2 -0.1
v 0.3 -0.2 -0.2
v 0.3 -0.2 -0.3
v 0.3 -0.1 0.2
v 0.3 -0.1 0.1
v 0.3 -0.1 -0.1
v 0.3 -0.1 -0.2
v 0.3 -0.1 -0.3
v 0.3 0.1 0.2
v 0.3 0.1 0.1
v 0.3 0.1 -0.1
v 0.3 0.1 -0.2
v 0.3 0.2 0.3
v 0.3 0.2 0.2
v 0.3 0.2 0.1
v 0.3 0.2 0
v 0.3 0.2 -0.1
v 0.3 0.2 -0.2
v 0.3 0.2 -0.3
v 0.3 0.3 0.2
v 0.3 0.3 0.1
v 0.3 0.3 0
v 0.3 0.3 -0.1
v 0.3 0.3 -0.2
v 0.4 -0.2 0.1
v 0.4 -0.2 0
v 0.4 -0.2 -0.1
v 0.4 -0.1 0.2
v 0.4 -0.1 0.1
v 0.4 -0.1 0
v 0.4 -0.1 -0.1
v 0.4 -0.1 -0.2
v 0.4 0.1 0.2
v 0.4 0.1 0.1
v 0.4 0.1 -0.1
v 0.4 0.1 -0.2
v 0.4 0.2 0.1
v 0.4 0.2 -0.1
v -0.2 -0.1 0.4
v -0.2 0.1 0.4
v -0.1 -0.2 0.4
v -0.1 -0.1 0.4
v -0.1 0 0.4
v -0.1 0.1 0.4
v -0.1 0.2 0.4
v 0 -0.2 0.4
v 0 -0.1 0.4
v 0 0 0.4
v 0 0.1 0.4
v 0.1 -0.2 0.4
v 0.1 -0.1 0.4
v 0.1 0 0.4
v 0.1 0.1 0.4
v 0.1 0.2 0.4
v 0.2 -0.1 0.4
v 0.2 0.1 0.4
v -0.3 -0.2 0.3
v -0.3 0 0.3
v -0.3 0.2 0.3
v -0.2 -0.3 0.3
v -0.2 -0.2 0.3
v -0.2 -0.1 0.3
v -0.2 0 0.3
v -0.2 0.1 0.3
v -0.2 0.2 0.3
v -0.2 0.3 0.3
v -0.1 -0.3 0.3
v -0.1 -0.2 0.3
v -0.1 -0.1 0.3
v -0.1 0.1 0.3
v -0.1 0.2 0.3
v 0 -0.3 0.3
v 0 -0.2 0.3
v 0.1 -0.2 0.3
v 0.1 -0.1 0.3
v 0.1 0.1 0.3
v 0.1 0.2 0.3
v 0.2 -0.3 0.3
v 0.2 -0.2 0.3
v 0.2 -0.1 0.3
v 0.2 0.1 0.3
v 0.2 0.2 0.3
v 0.2 0.3 0.3
v 0.3 -0.2 0.3
v 0.3 0.2 0.3
v -0.4 -0.1 0.2
v -0.4 0 0.2
v -0.4 0.1 0.2
v -0.3 -0.3 0.2
v -0.3 -0.2 0.2
v -0.3 -0.1 0.2
v -0.3 0 0.2
v -0.3 0.1 0.2
v -0.3 0.2 0.2
v -0.3 0.3 0.2
v -0.2 -0.3 0.2
v -0.2 -0.2 0.2
v -0.2 0.2 0.2
v -0.2 0.3 0.2
v -0.1 -0.4 0.2
v -0.1 -0.3 0.2
v -0.1 0.3 0.2
v -0.1 0.4 0.2
v 0 -0.3 0.2
v 0 0.3 0.2
v 0 0.4 0.2
v 0.1 -0.4 0.2
v 0.1 -0.3 0.2
v 0.1 0.3 0.2
v 0.1 0.4 0.2
v 0.2 -0.3 0.2
v 0.2 -0.2 0.2
v 0.2 0.2 0.2
v 0.2 0.3 0.2
v 0.3 -0.3 0.2
v 0.3 -0.2 0.2
v 0.3 -0.1 0.2
v 0.3 0.1 0.2
v 0.3 0.2 0.2
v 0.3 0.3 0.2
v 0.4 -0.1 0.2
v 0.4 0.1 0.2
v -0.4 -0.2 0.1
v -0.4 -0.1 0.1
v -0.4 0.1 0.1
v -0.4 0.2 0.1
v -0.3 -0.2 0.1
v -0.3 -0.1 0.1
v -0.3 0.1 0.1
v -0.3 0.2 0.1
v -0.2 -0.4 0.1
v -0.2 -0.3 0.1
v -0.2 0.3 0.1
v -0.2 0.4 0.1
v -0.1 -0.4 0.1
v -0.1 -0.3 0.1
v -0.1 0.3 0.1
v -0.1 0.4 0.1
v 0.1 -0.4 0.1
v 0.1 -0.3 0.1
v 0.1 0.3 0.1
v 0.1 0.4 0.1
v 0.2 -0.4 0.1
v 0.2 -0.3 0.1
v 0.2 0.3 0.1
v 0.2 0.4 0.1
v 0.3 -0.2 0.1
v 0.3 -0.1 0.1
v 0.3 0.1 0.1
v 0.3 0.2 0.1
v 0.4 -0.2 0.1
v 0.4 -0.1 0.1
v 0.4 0.1 0.1
v 0.4 0.2 0.1
v -0.4 -0.2 -0.1
v -0.4 -0.1 -0.1
v -0.4 0.1 -0.1
v -0.4 0.2 -0.1
v -0.3 -0.2 -0.1
v -0.3 -0.1 -0.1
v -0.3 0.1 -0.1
v -0.3 0.2 -0.1
v -0.2 -0.4 -0.1
v -0.2 -0.3 -0.1
v -0.2 0.3 -0.1
v -0.2 0.4 -0.1
v -0.1 -0.4 -0.1
v -0.1 -0.3 -0.1
v -0.1 0.3 -0.1
v -0.1 0.4 -0.1
v 0.1 -0.4 -0.1
v 0.1 -0.3 -0.1
v 0.1 0.3 -0.1
v 0.1 0.4 -0.1
v 0.2 -0.4 -0.1
v 0.2 -0.3 -0.1
v 0.2 0.3 -0.1
v 0.2 0.4 -0.1
v 0.3 -0.2 -0.1
v 0.3 -0.1 -0.1
v 0.3 0.1 -0.1
v 0.3 0.2 -0.1
v 0.4 -0.2 -0.1
v 0.4 -0.1 -0.1
v 0.4 0.1 -0.1
v 0.4 0.2 -0.1
v -0.4 -0.1 -0.2
v -0.4 0.1 -0.2
v -0.3 -0.3 -0.2
v -0.3 -0.2 -0.2
v -0.3 -0.1 -0.2
v -0.3 0.1 -0.2
v -0.3 0.2 -0.2
v -0.3 0.3 -0.2
v -0.2 -0.3 -0.2
v -0.2 -0.2 -0.2
v -0.2 0.2 -0.2
v -0.2 0.3 -0.2
v -0.1 -0.4 -0.2
v -0.1 -0.3 -0.2
v -0.1 0.3 -0.2
v -0.1 0.4 -0.2
v 0 -0.4 -0.2
v 0 -0.3 -0.2
v 0 0.3 -0.2
v 0.1 -0.4 -0.2
v 0.1 -0.3 -0.2
v 0.1 0.3 -0.2
v 0.1 0.4 -0.2
v 0.2 -0.3 -0.2
v 0.2 -0.2 -0.2
v 0.2 0.2 -0.2
v 0.2 0.3 -0.2
v 0.3 -0.3 -0.2
v 0.3 -0.2 -0.2
v 0.3 -0.1 -0.2
v 0.3 0.1 -0.2
v 0.3 0.2 -0.2
v 0.3 0.3 -0.2
v 0.4 -0.1 -0.2
v 0.4 0.1 -0.2
v -0.3 -0.2 -0.3
v -0.3 0.1 -0.3
v -0.3 0.2 -0.3
v -0.2 -0.3 -0.3
v -0.2 -0.2 -0.3
v -0.2 -0.1 -0.3
v -0.2 0 -0.3
v -0.2 0.1 -0.3
v -0.2 0.2 -0.3
v -0.2 0.3 -0.3
v -0.1 -0.3 -0.3
v -0.1 -0.2 -0.3
v -0.1 -0.1 -0.3
v -0.1 0.1 -0.3
v -0.1 0.2 -0.3
v 0 -0.3 -0.3
v 0 -0.2 -0.3
v 0 0.2 -0.3
v 0 0.3 -0.3
v 0.1 -0.2 -0.3
v 0.1 -0.1 -0.3
v 0.1 0.1 -0.3
v 0.1 0.2 -0.3
v 0.1 0.3 -0.3
v 0.2 -0.3 -0.3
v 0.2 -0.2 -0.3
v 0.2 -0.1 -0.3
v 0.2 0.1 -0.3
v 0.2 0.2 -0.3
v 0.2 0.3 -0.3
v 0.3 -0.2 -0.3
v 0.3 -0.1 -0.3
v 0.3 0.2 -0.3
v -0.2 -0.1 -0.4
v -0.2 0 -0.4
v -0.2 0.1 -0.4
v -0.1 -0.2 -0.4
v -0.1 -0.1 -0.4
v -0.1 0 -0.4
v -0.1 0.1 -0.4
v -0.1 0.2 -0.4
v 0 0.1 -0.4
v 0 0.2 -0.4
v 0.1 -0.2 -0.4
v 0.1 -0.1 -0.4
v 0.1 0.1 -0.4
v 0.1 0.2 -0.4
v 0.2 -0.1 -0.4
v 0.2 0.1 -0.4
v -0.1 -0.4 0.2
v 0.1 -0.4 0.2
v -0.2 -0.4 0.1
v -0.1 -0.4 0.1
v 0.1 -0.4 0.1
v 0.2 -0.4 0.1
v 0 -0.4 0
v 0.1 -0.4 0
v 0.2 -0.4 0
v -0.2 -0.4 -0.1
v -0.1 -0.4 -0.1
v 0 -0.4 -0.1
v 0.1 -0.4 -0.1
v 0.2 -0.4 -0.1
v -0.1 -0.4 -0.2
v 0 -0.4 -0.2
v 0.1 -0.4 -0.2
v -0.2 -0.3 0.3
v -0.1 -0.3 0.3
v 0 -0.3 0.3
v 0.2 -0.3 0.3
v -0.3 -0.3 0.2
v -0.2 -0.3 0.2
v -0.1 -0.3 0.2
v 0 -0.3 0.2
v 0.1 -0.3 0.2
v 0.2 -0.3 0.2
v 0.3 -0.3 0.2
v -0.2 -0.3 0.1
v -0.1 -0.3 0.1
v 0.1 -0.3 0.1
v 0.2 -0.3 0.1
v 0.3 -0.3 0.1
v 0.2 -0.3 0
v 0.3 -0.3 0
v -0.3 -0.3 -0.1
v -0.2 -0.3 -0.1
v -0.1 -0.3 -0.1
v 0.1 -0.3 -0.1
v 0.2 -0.3 -0.1
v -0.3 -0.3 -0.2
v -0.2 -0.3 -0.2
v -0.1 -0.3 -0.2
v 0 -0.3 -0.2
v 0.1 -0.3 -0.2
v 0.2 -0.3 -0.2
v 0.3 -0.3 -0.2
v -0.2 -0.3 -0.3
v -0.1 -0.3 -0.3
v 0 -0.3 -0.3
v 0.2 -0.3 -0.3
v -0.1 -0.2 0.4
v 0 -0.2 0.4
v 0.1 -0.2 0.4
v -0.3 -0.2 0.3
v -0.2 -0.2 0.3
v -0.1 -0.2 0.3
v 0 -0.2 0.3
v 0.1 -0.2 0.3
v 0.2 -0.2 0.3
v 0.3 -0.2 0.3
v -0.3 -0.2 0.2
v -0.2 -0.2 0.2
v 0.2 -0.2 0.2
v 0.3 -0.2 0.2
v -0.4 -0.2 0.1
v -0.3 -0.2 0.1
v 0.3 -0.2 0.1
v 0.4 -0.2 0.1
v 0.3 -0.2 0
v 0.4 -0.2 0
v -0.4 -0.2 -0.1
v -0.3 -0.2 -0.1
v 0.3 -0.2 -0.1
v 0.4 -0.2 -0.1
v -0.3 -0.2 -0.2
v -0.2 -0.2 -0.2
v 0.2 -0.2 -0.2
v 0.3 -0.2 -0.2
v -0.3 -0.2 -0.3
v -0.2 -0.2 -0.3
v -0.1 -0.2 -0.3
v 0 -0.2 -0.3
v 0.1 -0.2 -0.3
v 0.2 -0.2 -0.3
v 0.3 -0.2 -0.3
v -0.1 -0.2 -0.4
v 0.1 -0.2 -0.4
v -0.2 -0.1 0.4
v -0.1 -0.1 0.4
v 0.1 -0.1 0.4
v 0.2 -0.1 0.4
v -0.2 -0.1 0.3
v -0.1 -0.1 0.3
v 0.1 -0.1 0.3
v 0.2 -0.1 0.3
v -0.4 -0.1 0.2
v -0.3 -0.1 0.2
v 0.3 -0.1 0.2
v 0.4 -0.1 0.2
v -0.4 -0.1 0.1
v -0.3 -0.1 0.1
v 0.3 -0.1 0.1
v 0.4 -0.1 0.1
v -0.4 -0.1 -0.1
v -0.3 -0.1 -0.1
v 0.3 -0.1 -0.1
v 0.4 -0.1 -0.1
v -0.4 -0.1 -0.2
v -0.3 -0.1 -0.2
v 0.3 -0.1 -0.2
v 0.4 -0.1 -0.2
v -0.2 -0.1 -0.3
v -0.1 -0.1 -0.3
v 0.1 -0.1 -0.3
v 0.2 -0.1 -0.3
v -0.2 -0.1 -0.4
v -0.1 -0.1 -0.4
v 0.1 -0.1 -0.4
v 0.2 -0.1 -0.4
v -0.2 0.1 0.4
v -0.1 0.1 0.4
v 0.1 0.1 0.4
v 0.2 0.1 0.4
v -0.2 0.1 0.3
v -0.1 0.1 0.3
v 0.1 0.1 0.3
v 0.2 0.1 0.3
v -0.4 0.1 0.2
v -0.3 0.1 0.2
v 0.3 0.1 0.2
v 0.4 0.1 0.2
v -0.4 0.1 0.1
v -0.3 0.1 0.1
v 0.3 0.1 0.1
v 0.4 0.1 0.1
v -0.4 0.1 -0.1
v -0.3 0.1 -0.1
v 0.3 0.1 -0.1
v 0.4 0.1 -0.1
v -0.4 0.1 -0.2
v -0.3 0.1 -0.2
v 0.3 0.1 -0.2
v 0.4 0.1 -0.2
v -0.2 0.1 -0.3
v -0.1 0.1 -0.3
v 0.1 0.1 -0.3
v 0.2 0.1 -0.3
v -0.2 0.1 -0.4
v -0.1 0.1 -0.4
v 0.1 0.1 -0.4
v 0.2 0.1 -0.4
v -0.1 0.2 0.4
v 0.1 0.2 0.4
v -0.3 0.2 0.3
v -0.2 0.2 0.3
v -0.1 0.2 0.3
v 0.1 0.2 0.3
v 0.2 0.2 0.3
v 0.3 0.2 0.3
v -0.3 0.2 0.2
v -0.2 0.2 0.2
v 0.2 0.2 0.2
v 0.3 0.2 0.2
v -0.4 0.2 0.1
v -0.3 0.2 0.1
v 0.3 0.2 0.1
v 0.4 0.2 0.1
v -0.3 0.2 0
v 0.3 0.2 0
v -0.4 0.2 -0.1
v -0.3 0.2 -0.1
v 0.3 0.2 -0.1
v 0.4 0.2 -0.1
v -0.3 0.2 -0.2
v -0.2 0.2 -0.2
v 0.2 0.2 -0.2
v 0.3 0.2 -0.2
v -0.3 0.2 -0.3
v -0.2 0.2 -0.3
v -0.1 0.2 -0.3
v 0 0.2 -0.3
v 0.1 0.2 -0.3
v 0.2 0.2 -0.3
v 0.3 0.2 -0.3
v -0.1 0.2 -0.4
v 0 0.2 -0.4
v 0.1 0.2 -0.4
v -0.2 0.3 0.3
v 0.2 0.3 0.3
v -0.3 0.3 0.2
v -0.2 0.3 0.2
v -0.1 0.3 0.2
v 0 0.3 0.2
v 0.1 0.3 0.2
v 0.2 0.3 0.2
v 0.3 0.3 0.2
v -0.2 0.3 0.1
v -0.1 0.3 0.1
v 0.1 0.3 0.1
v 0.2 0.3 0.1
v 0.3 0.3 0.1
v -0.3 0.3 0
v -0.2 0.3 0
v 0.2 0.3 0
v 0.3 0.3 0
v -0.3 0.3 -0.1
v -0.2 0.3 -0.1
v -0.1 0.3 -0.1
v 0.1 0.3 -0.1
v 0.2 0.3 -0.1
v 0.3 0.3 -0.1
v -0.3 0.3 -0.2
v -0.2 0.3 -0.2
v -0.1 0.3 -0.2
v 0 0.3 -0.2
v 0.1 0.3 -0.2
v 0.2 0.3 -0.2
v 0.3 0.3 -0.2
v -0.2 0.3 -0.3
v 0 0.3 -0.3
v 0.1 0.3 -0.3
v 0.2 0.3 -0.3
v -0.1 0.4 0.2
v 0 0.4 0.2
v 0.1 0.4 0.2
v -0.2 0.4 0.1
v -0.1 0.4 0.1
v 0 0.4 0.1
v 0.1 0.4 0.1
v 0.2 0.4 0.1
v -0.2 0.4 0
v -0.1 0.4 0
v 0 0.4 0
v 0.1 0.4 0
v -0.2 0.4 -0.1
v -0.1 0.4 -0.1
v 0.1 0.4 -0.1
v 0.2 0.4 -0.1
v -0.1 0.4 -0.2
v 0.1 0.4 -0.2

# faces
f 4/4/1 2/4/1 1/4/1
f 5/4/1 2/4/1 4/4/1
f 7/1/1 4/1/1 3/1/1
f 8/4/1 6/4/1 5/4/1
f 8/1/1 4/1/1 7/1/1
f 8/4/1 5/4/1 4/4/1
f 9/2/1 8/2/1 7/2/1
f 10/4/1 6/4/1 8/4/1
f 10/2/1 8/2/1 9/2/1
f 11/4/1 6/4/1 10/4/1
f 12/4/1 6/4/1 11/4/1
f 13/4/1 11/4/1 10/4/1
f 14/4/1 11/4/1 13/4/1
f 19/4/1 16/4/1 15/4/1
f 20/4/1 16/4/1 19/4/1
f 21/1/1 17/1/1 16/1/1
f 21/4/1 16/4/1 20/4/1
f 22/1/1 17/1/1 21/1/1
f 24/4/1 20/4/1 19/4/1
f 24/4/1 19/4/1 18/4/1
f 25/4/1 20/4/1 24/4/1
f 26/1/1 22/1/1 21/1/1
f 27/4/1 23/4/1 22/4/1
f 27/1/1 22/1/1 26/1/1
f 28/4/1 24/4/1 18/4/1
f 29/4/1 24/4/1 28/4/1
f 30/2/1 29/2/1 28/2/1
f 33/4/1 23/4/1 27/4/1
f 34/4/1 23/4/1 33/4/1
f 35/2/1 31/2/1 30/2/1
f 35/2/1 30/2/1 28/2/1
f 36/2/1 31/2/1 35/2/1
f 37/2/1 31/2/1 36/2/1
f 39/4/1 33/4/1 32/4/1
f 40/3/1 34/3/1 33/3/1
f 40/4/1 33/4/1 39/4/1
f 41/3/1 34/3/1 40/3/1
f 42/4/1 38/4/1 37/4/1
f 42/4/1 37/4/1 36/4/1
f 43/1/1 39/1/1 38/1/1
f 43/4/1 38/4/1 42/4/1
f 44/2/1 40/2/1 39/2/1
f 44/1/1 39/1/1 43/1/1
f 45/2/1 40/2/1 44/2/1
f 50/4/1 47/4/1 46/4/1
f 51/4/1 47/4/1 50/4/1
f 54/3/1 49/3/1 48/3/1
f 55/3/1 49/3/1 54/3/1
f 56/3/1 53/3/1 52/3/1
f 57/3/1 53/3/1 56/3/1
f 62/4/1 59/4/1 58/4/1
f 63/4/1 61/4/1 60/4/1
f 64/4/1 61/4/1 63/4/1
f 65/4/1 62/4/1 58/4/1
f 66/4/1 62/4/1 65/4/1
f 67/1/1 64/1/1 63/1/1
f 68/1/1 64/1/1 67/1/1
f 73/4/1 70/4/1 69/4/1
f 74/4/1 70/4/1 73/4/1
f 78/2/1 72/2/1 71/2/1
f 79/2/1 72/2/1 78/2/1
f 80/4/1 76/4/1 75/4/1
f 81/3/1 77/3/1 76/3/1
f 81/4/1 76/4/1 80/4/1
f 82/3/1 77/3/1 81/3/1
f 87/4/1 84/4/1 83/4/1
f 88/4/1 84/4/1 87/4/1
f 89/3/1 86/3/1 85/3/1
f 90/3/1 86/3/1 89/3/1
f 95/2/1 92/2/1 91/2/1
f 96/2/1 92/2/1 95/2/1
f 97/4/1 94/4/1 93/4/1
f 98/4/1 94/4/1 97/4/1
f 103/4/1 100/4/1 99/4/1
f 104/4/1 100/4/1 103/4/1
f 105/3/1 102/3/1 101/3/1
f 106/3/1 102/3/1 105/3/1
f 111/4/1 108/4/1 107/4/1
f 112/4/1 108/4/1 111/4/1
f 113/1/1 110/1/1 109/1/1
f 114/1/1 110/1/1 113/1/1
f 115/4/2 116/4/2 119/4/2
f 119/4/2 116/4/2 120/4/2
f 117/2/2 118/2/2 121/2/2
f 121/2/2 118/2/2 122/2/2
f 123/1/2 124/1/2 127/1/2
f 127/1/2 124/1/2 128/1/2
f 125/4/2 126/4/2 129/4/2
f 129/4/2 126/4/2 130/4/2
f 131/4/2 132/4/2 135/4/2
f 135/4/2 132/4/2 136/4/2
f 133/4/2 134/4/2 137/4/2
f 137/4/2 134/4/2 138/4/2
f 139/1/2 140/1/2 143/1/2
f 143/1/2 140/1/2 144/1/2
f 141/1/2 142/1/2 145/1/2
f 145/1/2 142/1/2 146/1/2
f 147/4/2 148/4/2 152/4/2
f 148/3/2 149/3/2 153/3/2
f 152/4/2 148/4/2 153/4/2
f 153/3/2 149/3/2 154/3/2
f 150/4/2 151/4/2 157/4/2
f 157/4/2 151/4/2 158/4/2
f 155/2/2 156/2/2 159/2/2
f 159/2/2 156/2/2 160/2/2
f 161/1/2 162/1/2 165/1/2
f 165/1/2 162/1/2 166/1/2
f 163/4/2 164/4/2 167/4/2
f 167/4/2 164/4/2 168/4/2
f 169/4/2 170/4/2 173/4/2
f 173/4/2 170/4/2 174/4/2
f 171/2/2 172/2/2 178/2/2
f 178/2/2 172/2/2 179/2/2
f 176/1/2 177/1/2 180/1/2
f 175/1/2 176/1/2 180/1/2
f 180/1/2 177/1/2 181/1/2
f 182/2/2 183/2/2 187/2/2
f 183/1/2 184/1/2 188/1/2
f 187/2/2 183/2/2 188/2/2
f 184/3/2 185/3/2 189/3/2
f 188/1/2 184/1/2 189/1/2
f 189/3/2 185/3/2 190/3/2
f 190/3/2 185/3/2 191/3/2
f 187/4/2 188/4/2 193/4/2
f 186/4/2 187/4/2 193/4/2
f 193/4/2 188/4/2 194/4/2
f 191/3/2 192/3/2 195/3/2
f 190/3/2 191/3/2 195/3/2
f 195/3/2 192/3/2 196/3/2
f 196/3/2 192/3/2 197/3/2
f 186/4/2 193/4/2 198/4/2
f 196/4/2 197/4/2 201/4/2
f 198/4/2 199/4/2 202/4/2
f 186/4/2 198/4/2 202/4/2
f 202/4/2 199/4/2 203/4/2
f 203/4/2 199/4/2 204/4/2
f 200/4/2 201/4/2 206/4/2
f 201/4/2 197/4/2 207/4/2
f 206/4/2 201/4/2 207/4/2
f 207/4/2 197/4/2 208/4/2
f 203/4/2 204/4/2 209/4/2
f 204/2/2 205/2/2 210/2/2
f 209/4/2 204/4/2 210/4/2
f 205/1/2 206/1/2 211/1/2
f 210/2/2 205/2/2 211/2/2
f 206/4/2 207/4/2 212/4/2
f 211/1/2 206/1/2 212/1/2
f 212/4/2 207/4/2 213/4/2
f 214/1/2 215/1/2 218/1/2
f 215/3/2 216/3/2 219/3/2
f 218/1/2 215/1/2 219/1/2
f 219/3/2 216/3/2 220/3/2
f 217/4/2 218/4/2 222/4/2
f 220/4/2 221/4/2 222/4/2
f 219/4/2 220/4/2 222/4/2
f 218/4/2 219/4/2 222/4/2
f 222/4/2 221/4/2 223/4/2
f 223/4/2 221/4/2 224/4/2
f 224/4/2 221/4/2 225/4/2
f 223/4/2 224/4/2 226/4/2
f 226/4/2 224/4/2 227/4/2
f 231/4/3 229/4/3 228/4/3
f 232/4/3 229/4/3 231/4/3
f 233/4/3 229/4/3 232/4/3
f 235/2/3 231/2/3 230/2/3
f 236/3/3 232/3/3 231/3/3
f 236/2/3 231/2/3 235/2/3
f 237/4/3 234/4/3 233/4/3
f 237/3/3 232/3/3 236/3/3
f 237/4/3 233/4/3 232/4/3
f 238/4/3 234/4/3 237/4/3
f 239/1/3 236/1/3 235/1/3
f 240/3/3 237/3/3 236/3/3
f 240/1/3 236/1/3 239/1/3
f 241/1/3 238/1/3 237/1/3
f 241/3/3 237/3/3 240/3/3
f 242/4/3 234/4/3 238/4/3
f 242/1/3 238/1/3 241/1/3
f 243/4/3 234/4/3 242/4/3
f 244/1/3 241/1/3 240/1/3
f 244/1/3 242/1/3 241/1/3
f 245/1/3 242/1/3 244/1/3
f 250/4/3 247/4/3 246/4/3
f 251/4/3 247/4/3 250/4/3
f 252/2/3 248/2/3 247/2/3
f 252/4/3 247/4/3 251/4/3
f 253/2/3 248/2/3 252/2/3
f 254/2/3 248/2/3 253/2/3
f 256/3/3 251/3/3 250/3/3
f 256/3/3 250/3/3 249/3/3
f 257/3/3 251/3/3 256/3/3
f 258/3/3 251/3/3 257/3/3
f 259/4/3 255/4/3 254/4/3
f 259/4/3 254/4/3 253/4/3
f 260/4/3 255/4/3 259/4/3
f 261/1/3 257/1/3 256/1/3
f 262/1/3 257/1/3 261/1/3
f 263/4/3 262/4/3 261/4/3
f 266/4/3 255/4/3 260/4/3
f 267/4/3 263/4/3 261/4/3
f 268/1/3 264/1/3 263/1/3
f 268/4/3 263/4/3 267/4/3
f 269/1/3 264/1/3 268/1/3
f 270/4/3 266/4/3 265/4/3
f 271/4/3 255/4/3 266/4/3
f 271/4/3 266/4/3 270/4/3
f 272/4/3 255/4/3 271/4/3
f 273/4/3 269/4/3 268/4/3
f 273/4/3 270/4/3 269/4/3
f 273/4/3 271/4/3 270/4/3
f 274/4/3 271/4/3 273/4/3
f 280/1/3 276/1/3 275/1/3
f 281/2/3 277/2/3 276/2/3
f 281/1/3 276/1/3 280/1/3
f 282/2/3 277/2/3 281/2/3
f 285/4/3 279/4/3 278/4/3
f 286/4/3 279/4/3 285/4/3
f 287/4/3 284/4/3 283/4/3
f 288/4/3 284/4/3 287/4/3
f 293/4/3 290/4/3 289/4/3
f 294/4/3 292/4/3 291/4/3
f 295/4/3 292/4/3 294/4/3
f 296/4/3 293/4/3 289/4/3
f 297/4/3 293/4/3 296/4/3
f 298/1/3 295/1/3 294/1/3
f 299/1/3 295/1/3 298/1/3
f 304/2/3 301/2/3 300/2/3
f 305/2/3 301/2/3 304/2/3
f 308/4/3 303/4/3 302/4/3
f 309/4/3 303/4/3 308/4/3
f 310/4/3 307/4/3 306/4/3
f 311/4/3 307/4/3 310/4/3
f 316/4/3 313/4/3 312/4/3
f 317/4/3 313/4/3 316/4/3
f 318/4/3 315/4/3 314/4/3
f 319/4/3 315/4/3 318/4/3
f 324/4/3 321/4/3 320/4/3
f 325/4/3 321/4/3 324/4/3
f 326/4/3 323/4/3 322/4/3
f 327/4/3 323/4/3 326/4/3
f 332/4/3 329/4/3 328/4/3
f 333/4/3 329/4/3 332/4/3
f 334/1/3 331/1/3 330/1/3
f 335/1/3 331/1/3 334/1/3
f 340/1/3 337/1/3 336/1/3
f 341/1/3 337/1/3 340/1/3
f 342/4/3 339/4/3 338/4/3
f 343/4/3 339/4/3 342/4/3
f 344/4/4 345/4/4 348/4/4
f 348/4/4 345/4/4 349/4/4
f 346/4/4 347/4/4 350/4/4
f 350/4/4 347/4/4 351/4/4
f 352/4/4 353/4/4 356/4/4
f 356/4/4 353/4/4 357/4/4
f 354/3/4 355/3/4 358/3/4
f 358/3/4 355/3/4 359/3/4
f 360/3/4 361/3/4 364/3/4
f 364/3/4 361/3/4 365/3/4
f 362/1/4 363/1/4 366/1/4
f 366/1/4 363/1/4 367/1/4
f 368/3/4 369/3/4 372/3/4
f 372/3/4 369/3/4 373/3/4
f 370/4/4 371/4/4 374/4/4
f 374/4/4 371/4/4 375/4/4
f 376/4/4 377/4/4 380/4/4
f 380/4/4 377/4/4 381/4/4
f 378/1/4 379/1/4 384/1/4
f 384/1/4 379/1/4 385/1/4
f 382/2/4 383/2/4 386/2/4
f 386/2/4 383/2/4 387/2/4
f 388/3/4 389/3/4 392/3/4
f 392/3/4 389/3/4 393/3/4
f 390/1/4 391/1/4 394/1/4
f 392/2/4 393/2/4 395/2/4
f 395/2/4 393/2/4 396/2/4
f 394/1/4 391/1/4 397/1/4
f 397/1/4 391/1/4 398/1/4
f 399/3/4 400/3/4 403/3/4
f 403/3/4 400/3/4 404/3/4
f 401/4/4 402/4/4 407/4/4
f 407/4/4 402/4/4 408/4/4
f 405/4/4 406/4/4 409/4/4
f 409/4/4 406/4/4 410/4/4
f 411/4/4 412/4/4 415/4/4
f 415/4/4 412/4/4 416/4/4
f 416/4/4 412/4/4 417/4/4
f 412/3/4 413/3/4 418/3/4
f 417/4/4 412/4/4 418/4/4
f 418/3/4 413/3/4 419/3/4
f 414/3/4 415/3/4 421/3/4
f 415/4/4 416/4/4 422/4/4
f 421/3/4 415/3/4 422/3/4
f 422/4/4 416/4/4 423/4/4
f 418/3/4 419/3/4 424/3/4
f 419/2/4 420/2/4 425/2/4
f 424/3/4 419/3/4 425/3/4
f 421/1/4 422/1/4 426/1/4
f 426/1/4 422/1/4 427/1/4
f 425/2/4 420/2/4 428/2/4
f 428/2/4 420/2/4 429/2/4
f 426/2/4 427/2/4 430/2/4
f 428/1/4 429/1/4 433/1/4
f 433/1/4 429/1/4 434/1/4
f 426/2/4 430/2/4 435/2/4
f 430/4/4 431/4/4 436/4/4
f 435/2/4 430/2/4 436/2/4
f 436/4/4 431/4/4 437/4/4
f 432/4/4 433/4/4 438/4/4
f 433/2/4 434/2/4 439/2/4
f 438/4/4 433/4/4 439/4/4
f 439/2/4 434/2/4 440/2/4
f 436/3/4 437/3/4 441/3/4
f 437/4/4 438/4/4 442/4/4
f 441/3/4 437/3/4 442/3/4
f 438/4/4 439/4/4 442/4/4
f 442/4/4 439/4/4 443/4/4
f 444/4/4 445/4/4 448/4/4
f 445/1/4 446/1/4 449/1/4
f 448/4/4 445/4/4 449/4/4
f 449/1/4 446/1/4 450/1/4
f 447/4/4 448/4/4 452/4/4
f 450/3/4 451/3/4 452/3/4
f 449/4/4 450/4/4 452/4/4
f 448/4/4 449/4/4 452/4/4
f 452/3/4 451/3/4 453/3/4
f 447/4/4 452/4/4 454/4/4
f 452/4/4 453/4/4 454/4/4
f 454/4/4 453/4/4 455/4/4
f 455/4/4 453/4/4 456/4/4
f 456/4/4 453/4/4 457/4/4
f 455/4/4 456/4/4 458/4/4
f 458/4/4 456/4/4 459/4/4
f 463/4/5 461/4/5 460/4/5
f 464/4/5 461/4/5 463/4/5
f 466/4/5 463/4/5 462/4/5
f 466/4/5 465/4/5 464/4/5
f 466/4/5 464/4/5 463/4/5
f 467/4/5 465/4/5 466/4/5
f 468/4/5 465/4/5 467/4/5
f 469/4/5 466/4/5 462/4/5
f 470/4/5 466/4/5 469/4/5
f 471/2/5 467/2/5 466/2/5
f 471/4/5 466/4/5 470/4/5
f 472/3/5 468/3/5 467/3/5
f 472/2/5 467/2/5 471/2/5
f 473/3/5 468/3/5 472/3/5
f 474/3/5 471/3/5 470/3/5
f 475/2/5 472/2/5 471/2/5
f 475/3/5 471/3/5 474/3/5
f 476/2/5 472/2/5 475/2/5
f 482/3/5 478/3/5 477/3/5
f 483/1/5 479/1/5 478/1/5
f 483/3/5 478/3/5 482/3/5
f 484/4/5 480/4/5 479/4/5
f 484/1/5 479/1/5 483/1/5
f 485/4/5 480/4/5 484/4/5
f 486/4/5 480/4/5 485/4/5
f 488/1/5 483/1/5 482/1/5
f 488/4/5 482/4/5 481/4/5
f 489/1/5 483/1/5 488/1/5
f 490/4/5 486/4/5 485/4/5
f 491/2/5 487/2/5 486/2/5
f 491/4/5 486/4/5 490/4/5
f 492/2/5 487/2/5 491/2/5
f 493/1/5 492/1/5 491/1/5
f 494/1/5 492/1/5 493/1/5
f 495/4/5 488/4/5 481/4/5
f 496/4/5 488/4/5 495/4/5
f 499/3/5 494/3/5 493/3/5
f 500/1/5 496/1/5 495/1/5
f 501/3/5 497/3/5 496/3/5
f 501/1/5 496/1/5 500/1/5
f 502/3/5 497/3/5 501/3/5
f 504/3/5 499/3/5 498/3/5
f 505/3/5 494/3/5 499/3/5
f 505/3/5 499/3/5 504/3/5
f 506/3/5 494/3/5 505/3/5
f 507/3/5 502/3/5 501/3/5
f 508/1/5 503/1/5 502/1/5
f 508/3/5 502/3/5 507/3/5
f 509/2/5 504/2/5 503/2/5
f 509/1/5 503/1/5 508/1/5
f 509/2/5 505/2/5 504/2/5
f 510/2/5 505/2/5 509/2/5
f 516/2/5 512/2/5 511/2/5
f 517/1/5 513/1/5 512/1/5
f 517/2/5 512/2/5 516/2/5
f 518/1/5 513/1/5 517/1/5
f 521/4/5 515/4/5 514/4/5
f 522/4/5 515/4/5 521/4/5
f 523/4/5 520/4/5 519/4/5
f 524/4/5 520/4/5 523/4/5
f 529/1/5 528/1/5 527/1/5
f 530/1/5 528/1/5 529/1/5
f 531/4/5 526/4/5 525/4/5
f 532/4/5 526/4/5 531/4/5
f 533/3/5 530/3/5 529/3/5
f 534/3/5 530/3/5 533/3/5
f 539/4/5 536/4/5 535/4/5
f 540/4/5 536/4/5 539/4/5
f 544/3/5 538/3/5 537/3/5
f 545/3/5 538/3/5 544/3/5
f 546/4/5 543/4/5 542/4/5
f 546/4/5 542/4/5 541/4/5
f 547/4/5 543/4/5 546/4/5
f 552/4/5 549/4/5 548/4/5
f 553/4/5 549/4/5 552/4/5
f 554/1/5 551/1/5 550/1/5
f 555/1/5 551/1/5 554/1/5
f 560/1/5 557/1/5 556/1/5
f 561/1/5 557/1/5 560/1/5
f 562/4/5 559/4/5 558/4/5
f 563/4/5 559/4/5 562/4/5
f 568/4/5 565/4/5 564/4/5
f 569/4/5 565/4/5 568/4/5
f 570/4/5 567/4/5 566/4/5
f 571/4/5 567/4/5 570/4/5
f 576/4/5 573/4/5 572/4/5
f 577/4/5 573/4/5 576/4/5
f 578/4/5 575/4/5 574/4/5
f 579/4/5 575/4/5 578/4/5
f 580/4/6 581/4/6 584/4/6
f 584/4/6 581/4/6 585/4/6
f 582/1/6 583/1/6 586/1/6
f 586/1/6 583/1/6 587/1/6
f 588/2/6 589/2/6 592/2/6
f 592/2/6 589/2/6 593/2/6
f 590/4/6 591/4/6 594/4/6
f 594/4/6 591/4/6 595/4/6
f 596/4/6 597/4/6 600/4/6
f 600/4/6 597/4/6 601/4/6
f 598/4/6 599/4/6 602/4/6
f 602/4/6 599/4/6 603/4/6
f 604/1/6 605/1/6 608/1/6
f 608/1/6 605/1/6 609/1/6
f 606/4/6 607/4/6 610/4/6
f 610/4/6 607/4/6 611/4/6
f 612/4/6 613/4/6 616/4/6
f 616/4/6 613/4/6 617/4/6
f 614/2/6 615/2/6 620/2/6
f 620/2/6 615/2/6 621/2/6
f 618/4/6 619/4/6 622/4/6
f 622/4/6 619/4/6 623/4/6
f 624/4/6 625/4/6 628/4/6
f 626/4/6 627/4/6 629/4/6
f 624/4/6 628/4/6 630/4/6
f 630/4/6 628/4/6 631/4/6
f 629/4/6 627/4/6 632/4/6
f 632/4/6 627/4/6 633/4/6
f 634/3/6 635/3/6 638/3/6
f 638/3/6 635/3/6 639/3/6
f 636/4/6 637/4/6 643/4/6
f 643/4/6 637/4/6 644/4/6
f 640/3/6 641/3/6 645/3/6
f 641/4/6 642/4/6 646/4/6
f 645/3/6 641/3/6 646/3/6
f 646/4/6 642/4/6 647/4/6
f 648/4/6 649/4/6 651/4/6
f 651/4/6 649/4/6 652/4/6
f 652/4/6 649/4/6 653/4/6
f 653/4/6 649/4/6 654/4/6
f 654/4/6 649/4/6 655/4/6
f 650/4/6 651/4/6 657/4/6
f 651/4/6 652/4/6 657/4/6
f 657/4/6 652/4/6 658/4/6
f 654/1/6 655/1/6 659/1/6
f 655/4/6 656/4/6 660/4/6
f 659/1/6 655/1/6 660/1/6
f 660/4/6 656/4/6 661/4/6
f 650/4/6 657/4/6 662/4/6
f 662/4/6 657/4/6 663/4/6
f 660/2/6 661/2/6 664/2/6
f 664/2/6 661/2/6 665/2/6
f 662/1/6 663/1/6 666/1/6
f 666/1/6 663/1/6 667/1/6
f 664/1/6 665/1/6 670/1/6
f 670/1/6 665/1/6 671/1/6
f 667/2/6 668/2/6 672/2/6
f 666/2/6 667/2/6 672/2/6
f 672/2/6 668/2/6 673/2/6
f 673/2/6 668/2/6 674/2/6
f 669/1/6 670/1/6 676/1/6
f 670/4/6 671/4/6 677/4/6
f 676/1/6 670/1/6 677/1/6
f 677/4/6 671/4/6 678/4/6
f 674/2/6 675/2/6 679/2/6
f 673/2/6 674/2/6 679/2/6
f 675/1/6 676/1/6 680/1/6
f 679/2/6 675/2/6 680/2/6
f 676/2/6 677/2/6 681/2/6
f 680/1/6 676/1/6 681/1/6
f 681/2/6 677/2/6 682/2/6
f 683/4/6 684/4/6 687/4/6
f 684/1/6 685/1/6 688/1/6
f 687/4/6 684/4/6 688/4/6
f 688/1/6 685/1/6 689/1/6
f 686/4/6 687/4/6 691/4/6
f 687/1/6 688/1/6 692/1/6
f 691/4/6 687/4/6 692/4/6
f 688/2/6 689/2/6 693/2/6
f 692/1/6 688/1/6 693/1/6
f 689/1/6 690/1/6 694/1/6
f 693/2/6 689/2/6 694/2/6
f 692/3/6 693/3/6 695/3/6
f 691/3/6 692/3/6 695/3/6
f 693/3/6 694/3/6 695/3/6
f 695/3/6 694/3/6 696/3/6
f 694/1/6 690/1/6 697/1/6
f 696/3/6 694/3/6 697/3/6
f 697/1/6 690/1/6 698/1/6
f 696/1/6 697/1/6 699/1/6
f 699/1/6 697/1/6 700/1/6
